<?xml version="1.0" encoding="utf-8"?>
<!-- Generator: Adobe Illustrator 16.0.0, SVG Export Plug-In . SVG Version: 6.00 Build 0)  -->
<!DOCTYPE svg PUBLIC "-//W3C//DTD SVG 1.1//EN" "http://www.w3.org/Graphics/SVG/1.1/DTD/svg11.dtd">
<svg version="1.1" id="Layer_1" xmlns="http://www.w3.org/2000/svg" xmlns:xlink="http://www.w3.org/1999/xlink" x="0px" y="0px"
	 width="56.69px" height="56.69px" viewBox="0 0 56.69 56.69" enable-background="new 0 0 56.69 56.69" xml:space="preserve">
<g>
	<path fill="none" d="M28.562,28.727c0-1.36,3.004-1.755,3.004-4.952c0-1.918-0.178-3.075-1.693-3.755
		c0-0.476,2.677-0.163,2.677-1.052h-5.863c0,0-5.937,0.145-5.937,5.152c0,5.007,5.19,4.427,5.19,4.427v1.27
		c0,0.513,0.696,0.341,0.782,1.379c-0.351,0-7.211-0.182-7.211,4.354s6.046,4.317,6.046,4.317s6.992,0.318,6.992-5.314
		C32.549,31.176,28.562,30.088,28.562,28.727 M23.496,24.409c-0.549-2.011,0.174-3.957,1.616-4.348
		c1.44-0.391,3.054,0.923,3.603,2.934c0.55,2.011-0.174,3.958-1.615,4.349C25.658,27.734,24.045,26.42,23.496,24.409 M26.498,38.418
		c-2.42,0.163-4.479-1.13-4.598-2.889c-0.12-1.759,1.745-3.316,4.165-3.479c2.421-0.163,4.479,1.129,4.6,2.888
		C30.784,36.697,28.919,38.254,26.498,38.418"/>
	<path fill="none" d="M39.811,22.522v1.049h-2.26v2.212h-1.053v-2.212h-2.221v-1.049h2.221v-2.25h1.053v2.25H39.811z"/>
</g>
</svg>
