<?xml version="1.0" encoding="utf-8"?>
<!-- Generator: Adobe Illustrator 16.0.0, SVG Export Plug-In . SVG Version: 6.00 Build 0)  -->
<!DOCTYPE svg PUBLIC "-//W3C//DTD SVG 1.1//EN" "http://www.w3.org/Graphics/SVG/1.1/DTD/svg11.dtd">
<svg version="1.1" id="Layer_1" xmlns="http://www.w3.org/2000/svg" xmlns:xlink="http://www.w3.org/1999/xlink" x="0px" y="0px"
	 width="56.69px" height="56.69px" viewBox="0 0 56.69 56.69" enable-background="new 0 0 56.69 56.69" xml:space="preserve">
<path fill="none" d="M31.218,28.365c-0.673-0.723-1.567-1.201-2.687-1.435v-0.097c0.778-0.323,1.388-0.828,1.83-1.514
	c0.441-0.687,0.662-1.47,0.662-2.35c0-0.759-0.16-1.429-0.48-2.01c-0.32-0.582-0.805-1.045-1.452-1.393
	c-0.6-0.323-1.242-0.535-1.927-0.636c-0.685-0.101-1.691-0.151-3.021-0.151H17.75v18.032h7.244c1.256,0,2.292-0.113,3.105-0.339
	c0.815-0.227,1.563-0.605,2.243-1.139c0.575-0.444,1.033-1.005,1.374-1.684c0.34-0.678,0.51-1.465,0.51-2.361
	C32.227,30.063,31.891,29.088,31.218,28.365z M26.158,24.92c-0.137,0.298-0.389,0.533-0.753,0.702
	c-0.332,0.153-0.655,0.238-0.967,0.254c-0.312,0.017-0.856,0.025-1.635,0.025h-0.571v-3.815h0.316c0.811,0,1.42,0.007,1.83,0.018
	c0.409,0.013,0.764,0.083,1.063,0.212c0.316,0.137,0.549,0.36,0.699,0.666c0.149,0.307,0.225,0.605,0.225,0.896
	C26.365,24.274,26.297,24.622,26.158,24.92z M27.223,32.374c-0.19,0.343-0.493,0.604-0.906,0.781
	c-0.47,0.202-0.932,0.312-1.385,0.327c-0.454,0.016-1.273,0.024-2.456,0.024h-0.243v-4.518h0.839c0.81,0,1.456,0.006,1.938,0.019
	c0.482,0.012,0.861,0.07,1.137,0.175c0.454,0.162,0.794,0.4,1.021,0.715c0.227,0.314,0.34,0.751,0.34,1.308
	C27.508,31.641,27.413,32.031,27.223,32.374z"/>
</svg>
