<?xml version="1.0" encoding="utf-8"?>
<!-- Generator: Adobe Illustrator 16.0.0, SVG Export Plug-In . SVG Version: 6.00 Build 0)  -->
<!DOCTYPE svg PUBLIC "-//W3C//DTD SVG 1.1//EN" "http://www.w3.org/Graphics/SVG/1.1/DTD/svg11.dtd">
<svg version="1.1" xmlns="http://www.w3.org/2000/svg" xmlns:xlink="http://www.w3.org/1999/xlink" x="0px" y="0px"
	 width="150.342px" height="207.84px" viewBox="0 0 150.342 207.84" enable-background="new 0 0 150.342 207.84"
	 xml:space="preserve">
<g id="Group_3_1_">
	<path fill="#640121" d="M13.185,37.141c-2.124,0-4.013-1.509-4.418-3.672c-0.458-2.443,1.151-4.794,3.594-5.251
		c6.383-1.208,17.734-5.053,21.033-10.234C43.233,2.532,51.717,0.06,73.91,0.06h1c22.193,0,30.678,2.472,40.517,17.923
		c3.3,5.182,14.654,9.027,21.036,10.234c2.441,0.461,4.048,2.813,3.589,5.254c-0.46,2.441-2.803,4.052-5.25,3.591
		c-2.079-0.39-20.506-4.1-26.967-14.246C100.384,11.117,95.461,9.06,74.91,9.06h-1c-20.55,0-25.474,2.057-32.924,13.757
		c-6.461,10.146-24.887,13.856-26.967,14.246C13.739,37.116,13.46,37.141,13.185,37.141z"/>
	<g id="Rounded_Rectangle_3_copy">
		<g>
			<path fill="#640121" d="M47.885,76.146L22.26,31.563c-1.259-2.191-4.06-2.936-6.255-1.662c-2.195,1.273-2.954,4.081-1.695,6.272
				l25.625,44.583c1.259,2.191,4.06,2.935,6.255,1.662C48.386,81.145,49.145,78.337,47.885,76.146z"/>
		</g>
	</g>
	<g id="Rounded_Rectangle_3_copy_2">
		<g>
			<path fill="#640121" d="M133.755,29.901c-2.195-1.273-4.995-0.529-6.255,1.662l-25.625,44.583
				c-1.26,2.191-0.501,4.999,1.694,6.272c2.195,1.273,4.996,0.529,6.255-1.662l25.625-44.583
				C136.709,33.982,135.951,31.174,133.755,29.901z"/>
		</g>
	</g>
	<g id="Ellipse_1_copy_9">
		<g>
			<circle fill="#640121" cx="125.07" cy="191.28" r="11.04"/>
		</g>
	</g>
	<g id="Ellipse_1_copy_8">
		<g>
			<circle fill="#640121" cx="24.99" cy="191.28" r="11.04"/>
		</g>
	</g>
	<g id="Ellipse_1_copy_3">
		<g>
			<ellipse fill="#B8043F" cx="75.171" cy="132.758" rx="75.171" ry="75.082"/>
		</g>
	</g>
	<g id="Ellipse_1">
		<g>
			<path fill-rule="evenodd" clip-rule="evenodd" fill="#CE0848" d="M149.166,119.585c-6.237-35.181-36.98-61.909-73.994-61.909
				C33.655,57.676,0,91.292,0,132.758c0,6.82,0.927,13.421,2.633,19.701c15.33,19.046,38.831,31.247,65.196,31.247
				C107.315,183.707,140.388,156.356,149.166,119.585z"/>
		</g>
	</g>
	<g id="Ellipse_1_copy_6">
		<g>
			<path fill="#9D0D3C" d="M75.171,74.361c-32.291,0-58.467,26.145-58.467,58.397c0,18.577,8.686,35.127,22.221,45.822
				c9.008,3.314,18.744,5.126,28.903,5.126c23.44,0,44.624-9.639,59.811-25.162c3.838-7.777,5.998-16.529,5.998-25.786
				C133.637,100.506,107.461,74.361,75.171,74.361z"/>
		</g>
	</g>
	<g id="Shape_1">
		<g>
			<path fill="#FF7BA6" d="M38.764,72.373C29.168,76.344,20.955,85.719,18.6,92.935c-0.817,2.505,3.127,6.097,5.579,1.699
				c4.387-7.869,13.191-14.042,16.179-15.566C47.473,75.438,43.183,70.544,38.764,72.373z"/>
		</g>
	</g>
	<g id="Ellipse_1_copy_10">
		<g>
			<ellipse fill="#FFCC00" cx="75.171" cy="132.758" rx="54.589" ry="54.524"/>
		</g>
	</g>
	<g id="Ellipse_1_copy">
		<g>
			<path fill="#EC9C03" d="M75.171,78.234c-30.149,0-54.589,24.411-54.589,54.524c0,8.521,1.958,16.584,5.447,23.768
				c-0.832-3.969-1.271-8.081-1.271-12.297c0-32.992,26.777-59.738,59.81-59.738c8.384,0,16.364,1.727,23.606,4.837
				C99.008,82.369,87.574,78.234,75.171,78.234z"/>
		</g>
	</g>
	<g id="Ellipse_3">
		<g>
			<circle fill="#7A5300" cx="74.425" cy="180.876" r="3.724"/>
		</g>
	</g>
	<g id="Ellipse_3_copy">
		<g>
			<circle fill="#7A5300" cx="74.425" cy="85.832" r="3.724"/>
		</g>
	</g>
	<g id="Ellipse_3_copy_3">
		<g>
			<circle fill="#7A5300" cx="122.153" cy="133.503" r="3.724"/>
		</g>
	</g>
	<g id="Ellipse_3_copy_2">
		<g>
			<circle fill="#7A5300" cx="26.996" cy="133.503" r="3.724"/>
		</g>
	</g>
	<g id="Rounded_Rectangle_1">
		<g>
			<path fill="#3C392F" d="M79.172,94.027c-0.02-2.216-1.832-3.999-4.05-3.983c-2.217,0.016-3.999,1.826-3.979,4.042l0.337,39.231
				c0.019,2.216,1.831,4,4.049,3.983c2.217-0.017,3.999-1.826,3.98-4.042L79.172,94.027z"/>
		</g>
	</g>
	<g id="Rounded_Rectangle_1_copy">
		<g>
			<path fill="#302E25" d="M79.42,122.907c-1.304-0.562-2.74-0.875-4.249-0.875c-1.332,0-2.606,0.244-3.783,0.687l0.092,10.599
				c0.019,2.216,1.831,4,4.049,3.983c2.217-0.017,3.999-1.826,3.98-4.042L79.42,122.907z"/>
		</g>
	</g>
	<g id="Rounded_Rectangle_2">
		<g>
			<path fill="#3C392F" d="M75.454,132.824l-0.268-0.13c-2.223-1.081-4.899-0.158-5.979,2.062l-11.861,24.38
				c-1.08,2.22-0.154,4.896,2.068,5.977l0.268,0.131c2.222,1.081,4.899,0.158,5.979-2.062L77.522,138.8
				C78.602,136.581,77.676,133.905,75.454,132.824z"/>
		</g>
	</g>
	<g id="Rounded_Rectangle_2_copy">
		<g>
			<path fill="#302E25" d="M75.454,132.824l-0.268-0.13c-2.223-1.081-4.899-0.158-5.979,2.061l-2.313,4.756
				c1.892,2.504,4.855,4.15,8.21,4.263l2.419-4.973C78.602,136.581,77.676,133.905,75.454,132.824z"/>
		</g>
	</g>
	<g id="Ellipse_1_copy_2">
		<g>
			<ellipse fill="#3C392F" cx="75.32" cy="132.908" rx="7.606" ry="7.598"/>
		</g>
	</g>
</g>
<g id="Group_1_1_">
</g>
<g id="Group_2_1_">
</g>
</svg>
