<?xml version="1.0" encoding="utf-8"?>
<!-- Generator: Adobe Illustrator 16.0.0, SVG Export Plug-In . SVG Version: 6.00 Build 0)  -->
<!DOCTYPE svg PUBLIC "-//W3C//DTD SVG 1.1//EN" "http://www.w3.org/Graphics/SVG/1.1/DTD/svg11.dtd">
<svg version="1.1" xmlns="http://www.w3.org/2000/svg" xmlns:xlink="http://www.w3.org/1999/xlink" x="0px" y="0px"
	 width="150.342px" height="207.84px" viewBox="0 0 150.342 207.84" enable-background="new 0 0 150.342 207.84"
	 xml:space="preserve">
<g id="Group_3_1_">
</g>
<g id="Group_1_1_">
	<g id="Ellipse_4_copy">
		<g>
			<path fill="#CE0848" d="M132.018,34.519c-16.981-9.809-38.686-4.008-48.476,12.957c13.327,8.027,47.54,26.7,61.498,35.52
				C154.831,66.031,149,44.328,132.018,34.519z"/>
		</g>
	</g>
	<g id="Ellipse_4_copy_4">
		<g>
			<path fill="#B8043F" d="M85.922,43.875c-0.854,1.138-1.65,2.337-2.38,3.6c13.327,8.027,47.54,26.7,61.498,35.52
				c0.73-1.266,1.371-2.558,1.93-3.87L85.922,43.875z"/>
		</g>
	</g>
	<g id="Shape_1_copy">
		<g>
			<path fill="#FF7BA6" d="M111.528,33.589c-5.367,0.287-12.619,4.245-14.945,8.512c-1.268,2.326,1.539,6.168,4.569,2.759
				c4.025-4.53,8.498-5.458,11.299-6.029C116.637,37.979,116.346,33.333,111.528,33.589z"/>
		</g>
	</g>
</g>
<g id="Group_2_1_">
</g>
</svg>
