<?xml version="1.0" encoding="utf-8"?>
<!-- Generator: Adobe Illustrator 16.0.0, SVG Export Plug-In . SVG Version: 6.00 Build 0)  -->
<!DOCTYPE svg PUBLIC "-//W3C//DTD SVG 1.1//EN" "http://www.w3.org/Graphics/SVG/1.1/DTD/svg11.dtd">
<svg version="1.1" xmlns="http://www.w3.org/2000/svg" xmlns:xlink="http://www.w3.org/1999/xlink" x="0px" y="0px"
	 width="180px" height="97px" viewBox="0 0 120.96 65.04" enable-background="new 0 0 120.96 65.04" xml:space="preserve">
<g id="Ellipse_8_copy_4_1_" enable-background="new    ">
	<g id="Ellipse_8_copy_4">
		<g>
			<path fill="#FFFFFF" d="M34.932,10.548c2.63,0.034,5.115,0.761,7.354,2.036c3.227-7.552,9.588-12.675,16.809-12.582
				c7.047,0.09,13.072,5.121,16.062,12.456c2.326-1.258,4.885-1.944,7.562-1.91c10.248,0.132,18.336,10.711,18.064,23.63
				c-0.082,3.937-0.935,7.633-2.365,10.869C94.25,56.494,77.797,65.04,58.132,65.04c-20.669,0-37.791-9.44-40.829-21.767
				c-0.976-2.93-1.489-6.168-1.418-9.571C16.156,20.783,24.684,10.417,34.932,10.548z"/>
		</g>
	</g>
</g>
<g id="Ellipse_1_3_" enable-background="new    ">
	<g id="Ellipse_1_8_">
		<g>
			<ellipse fill="#2B4682" cx="42.69" cy="33.77" rx="5.46" ry="5.49"/>
		</g>
	</g>
</g>
<g id="Ellipse_1_copy_3_3_" enable-background="new    ">
	<g id="Ellipse_1_copy_3">
		<g>
			<ellipse fill="#FFFFFF" cx="45.494" cy="30.06" rx="2.214" ry="2.225"/>
		</g>
	</g>
</g>
<g id="Ellipse_1_2_" enable-background="new    ">
	<g id="Ellipse_1_6_">
		<g>
			<ellipse fill="#2B4682" cx="79.322" cy="33.784" rx="5.453" ry="5.519"/>
		</g>
	</g>
</g>
<g id="Ellipse_1_copy_3_2_" enable-background="new    ">
	<g id="Ellipse_1_copy_3_1_">
		<g>
			<ellipse fill="#FFFFFF" cx="82.123" cy="30.055" rx="2.211" ry="2.237"/>
		</g>
	</g>
</g>
<g id="Shape_1_copy_1_" enable-background="new    ">
	<g id="Shape_1_copy_3_">
		<g>
			<path fill="#D1E2F5" d="M54.64,40.735c3.166-0.875,2.96,3.05,7.351,3.825c5.845,1.032,5.244-1.959,8.007-0.276
				c2.874,1.75-1.94,8.562-9.201,8.089C51.925,51.793,50.844,41.783,54.64,40.735z"/>
		</g>
	</g>
</g>
<g id="Ellipse_9_copy_3_1_" enable-background="new    ">
</g>
<g id="Ellipse_9_copy_2_1_" enable-background="new    ">
</g>
</svg>
