<?xml version="1.0" encoding="utf-8"?>
<!-- Generator: Adobe Illustrator 16.0.0, SVG Export Plug-In . SVG Version: 6.00 Build 0)  -->
<!DOCTYPE svg PUBLIC "-//W3C//DTD SVG 1.1//EN" "http://www.w3.org/Graphics/SVG/1.1/DTD/svg11.dtd">
<svg version="1.1" xmlns="http://www.w3.org/2000/svg" xmlns:xlink="http://www.w3.org/1999/xlink" x="0px" y="0px"
	 width="250px" height="296px" viewBox="0 0 250.016 296.646" enable-background="new 0 0 250.016 296.646"
	 xml:space="preserve">
<g id="wing2_1_" enable-background="new    ">
</g>
<g id="wing1_1_" enable-background="new    ">
</g>
<g id="Ellipse_5_copy_7_1_" enable-background="new    ">
</g>
<g id="Ellipse_6_copy_7_1_" enable-background="new    ">
</g>
<g id="Ellipse_5_copy_6_1_" enable-background="new    ">
</g>
<g id="Ellipse_6_copy_6_1_" enable-background="new    ">
</g>
<g id="Rectangle_2_copy_3_1_" enable-background="new    ">
</g>
<g id="Ellipse_4_copy_61_1_" enable-background="new    ">
</g>
<g id="Rounded_Rectangle_1_copy_75_1_" enable-background="new    ">
</g>
<g id="Rounded_Rectangle_1_copy_74_1_" enable-background="new    ">
</g>
<g id="Rounded_Rectangle_1_copy_73_1_" enable-background="new    ">
</g>
<g id="Rounded_Rectangle_1_copy_72_1_" enable-background="new    ">
</g>
<g id="Rounded_Rectangle_1_copy_71_1_" enable-background="new    ">
</g>
<g id="Rounded_Rectangle_1_copy_70_1_" enable-background="new    ">
</g>
<g id="Ellipse_1_copy_2_3_" enable-background="new    ">
</g>
<g id="Ellipse_1_copy_2_2_" enable-background="new    ">
</g>
<g id="Ellipse_1_copy_1_" enable-background="new    ">
</g>
<g id="Group_3_1_">
	<g id="Ellipse_1">
		<g>
			<path fill-rule="evenodd" clip-rule="evenodd" d="M164.886,92.989c-1.611,0-3.174,0.202-4.681,0.551
				c1.488,1.561,2.408,3.685,2.408,6.031c0,4.788-3.815,8.668-8.521,8.668c-3.205,0-5.994-1.802-7.449-4.462
				c-1.758,3.125-2.776,6.734-2.776,10.593c0,11.809,9.411,21.382,21.02,21.382c11.609,0,21.021-9.573,21.021-21.382
				S176.495,92.989,164.886,92.989z"/>
		</g>
	</g>
	<g id="Ellipse_2">
		<g>
			<path fill="#2F91BA" d="M166.026,130.328c4.048-0.36,7.956-2.318,10.732-5.771c2.376-2.956,3.532-6.521,3.529-10.063
				C180.284,109.895,162.108,130.677,166.026,130.328z"/>
		</g>
	</g>
</g>
<g id="Group_2_1_">
	<g id="Ellipse_1_1_">
		<g>
			<path fill-rule="evenodd" clip-rule="evenodd" d="M87.851,92.989c-2.009,0-3.946,0.304-5.786,0.84
				c1.334,1.53,2.15,3.537,2.15,5.742c0,4.788-3.815,8.668-8.521,8.668c-2.713,0-5.125-1.293-6.685-3.303
				c-1.381,2.849-2.178,6.043-2.178,9.434c0,11.809,9.411,21.382,21.021,21.382c11.608,0,21.02-9.573,21.02-21.382
				S99.459,92.989,87.851,92.989z"/>
		</g>
	</g>
	<g id="Ellipse_2_copy">
		<g>
			<path fill="#2F91BA" d="M86.99,130.328c4.108-0.353,8.074-2.269,10.892-5.649c2.411-2.894,3.584-6.384,3.581-9.853
				C101.46,110.324,83.015,130.67,86.99,130.328z"/>
		</g>
	</g>
</g>
<g id="Group_1_1_">
</g>
<g id="Polygon_2_copy_13_1_" enable-background="new    ">
</g>
<g id="Ellipse_4_copy_2_1_" enable-background="new    ">
</g>
<g id="Polygon_2_copy_12_1_" enable-background="new    ">
</g>
</svg>
