<?xml version="1.0" encoding="utf-8"?>
<!-- Generator: Adobe Illustrator 16.0.0, SVG Export Plug-In . SVG Version: 6.00 Build 0)  -->
<!DOCTYPE svg PUBLIC "-//W3C//DTD SVG 1.1//EN" "http://www.w3.org/Graphics/SVG/1.1/DTD/svg11.dtd">
<svg version="1.1" xmlns="http://www.w3.org/2000/svg" xmlns:xlink="http://www.w3.org/1999/xlink" x="0px" y="0px"
	 width="105.36px" height="95.28px" viewBox="0 0 105.36 95.28" enable-background="new 0 0 105.36 95.28" xml:space="preserve">
<g id="Ellipse_7_copy_1_" enable-background="new    ">
</g>
<g id="Shape_1_copy_1_" enable-background="new    ">
</g>
<g id="hand_1_" enable-background="new    ">
</g>
<g id="hand2_1_" enable-background="new    ">
	<g id="hand2">
		<g>
			<path fill="#FDFF6F" d="M104.218,29.88c-1.884-2.502-5.438-2.998-7.937-1.107c-2.5,1.891-9.728,10.541-7.844,13.043
				s12.166-2.091,14.666-3.981C105.603,35.944,106.102,32.383,104.218,29.88z"/>
		</g>
	</g>
</g>
<g id="Ellipse_10_copy_4_1_" enable-background="new    ">
</g>
<g id="Ellipse_10_copy_3_1_" enable-background="new    ">
</g>
<g id="Ellipse_10_copy_6_1_" enable-background="new    ">
</g>
<g id="Ellipse_10_copy_5_1_" enable-background="new    ">
</g>
<g id="Ellipse_10_copy_10_1_" enable-background="new    ">
</g>
<g id="Ellipse_10_copy_9_1_" enable-background="new    ">
</g>
<g id="Ellipse_10_copy_8_1_" enable-background="new    ">
</g>
<g id="Ellipse_10_copy_7_1_" enable-background="new    ">
</g>
<g id="Shape_1_copy_2_1_" enable-background="new    ">
</g>
<g id="Ellipse_1__x2B__Ellipse_1_copy_3_2_" enable-background="new    ">
	<defs>
		<path id="SVGID_1_" enable-background="new    " d="M75.237,46.422c-0.306-2.69-2.717-4.629-5.388-4.329
			c-2.67,0.3-4.588,2.725-4.283,5.415c0.306,2.691,2.718,4.629,5.388,4.33S75.542,49.113,75.237,46.422z"/>
	</defs>
	<clipPath id="SVGID_2_">
		<use xlink:href="#SVGID_1_"  overflow="visible"/>
	</clipPath>
</g>
<g id="Ellipse_1__x2B__Ellipse_1_copy_3_4_" enable-background="new    ">
	<defs>
		<path id="SVGID_3_" enable-background="new    " d="M42.793,50.078c-0.307-2.705-2.717-4.655-5.384-4.355
			c-2.667,0.299-4.581,2.735-4.274,5.44s2.717,4.655,5.384,4.355C41.186,55.219,43.1,52.784,42.793,50.078z"/>
	</defs>
	<clipPath id="SVGID_4_">
		<use xlink:href="#SVGID_3_"  overflow="visible"/>
	</clipPath>
</g>
</svg>
