<?xml version="1.0" encoding="utf-8"?>
<!-- Generator: Adobe Illustrator 16.0.0, SVG Export Plug-In . SVG Version: 6.00 Build 0)  -->
<!DOCTYPE svg PUBLIC "-//W3C//DTD SVG 1.1//EN" "http://www.w3.org/Graphics/SVG/1.1/DTD/svg11.dtd">
<svg version="1.1" xmlns="http://www.w3.org/2000/svg" xmlns:xlink="http://www.w3.org/1999/xlink" x="0px" y="0px"
	 width="150.342px" height="207.84px" viewBox="0 0 150.342 207.84" enable-background="new 0 0 150.342 207.84"
	 xml:space="preserve">
<g id="Group_3_1_">
</g>
<g id="Group_1_1_">
</g>
<g id="Group_2_1_">
	<g id="Ellipse_4_copy_2">
		<g>
			<path fill="#CE0848" d="M18.752,34.53C1.779,44.345-4.047,66.064,5.737,83.041C19.688,74.214,53.88,55.528,67.2,47.496
				C57.416,30.52,35.724,24.714,18.752,34.53z"/>
		</g>
	</g>
	<g id="Ellipse_4_copy_3">
		<g>
			<path fill="#B8043F" d="M64.5,43.47L3.588,78.637c0.607,1.495,1.321,2.966,2.149,4.403C19.688,74.214,53.88,55.528,67.2,47.496
				C66.381,46.074,65.476,44.732,64.5,43.47z"/>
		</g>
	</g>
	<g id="Shape_1_copy_2">
		<g>
			<path fill="#FF7BA6" d="M33.668,35.566c-5.371,0.63-12.394,5.036-14.452,9.433c-1.122,2.396,1.945,6.04,4.766,2.451
				c3.747-4.767,8.177-5.979,10.952-6.727C39.082,39.605,38.488,35,33.668,35.566z"/>
		</g>
	</g>
</g>
</svg>
