<?xml version="1.0" encoding="utf-8"?>
<!-- Generator: Adobe Illustrator 16.0.0, SVG Export Plug-In . SVG Version: 6.00 Build 0)  -->
<!DOCTYPE svg PUBLIC "-//W3C//DTD SVG 1.1//EN" "http://www.w3.org/Graphics/SVG/1.1/DTD/svg11.dtd">
<svg version="1.1" xmlns="http://www.w3.org/2000/svg" xmlns:xlink="http://www.w3.org/1999/xlink" x="0px" y="0px" width="70px"
	 height="70px" viewBox="0 0 70 68.618" enable-background="new 0 0 70 68.618" xml:space="preserve">
<g id="Rectangle_4_copy_1_" enable-background="new    ">
</g>
<g id="Ellipse_13_1_" enable-background="new    ">
	<g id="Ellipse_13">
		<g>
			<path fill-rule="evenodd" clip-rule="evenodd" fill="#966941" d="M69.076,20.61l-4.909-8.685l-26.82,16.626l3.724,6.587
				L69.076,20.61z M0.61,48.043l4.909,8.685l26.819-16.626l-3.723-6.588L0.61,48.043z M35.66,28.084L21.187,0.032L12.516,4.96
				l16.567,26.861L35.66,28.084z M34.027,40.567L48.5,68.618l8.672-4.928L40.604,36.829L34.027,40.567z M30.542,34.606
				c-0.02,2.375,1.885,4.314,4.254,4.332c2.37,0.019,4.308-1.893,4.327-4.267c0.02-2.375-1.885-4.314-4.255-4.332
				C32.499,30.321,30.562,32.232,30.542,34.606z"/>
		</g>
	</g>
</g>
</svg>
