<?xml version="1.0" encoding="utf-8"?>
<!-- Generator: Adobe Illustrator 16.0.0, SVG Export Plug-In . SVG Version: 6.00 Build 0)  -->
<!DOCTYPE svg PUBLIC "-//W3C//DTD SVG 1.1//EN" "http://www.w3.org/Graphics/SVG/1.1/DTD/svg11.dtd">
<svg version="1.1" id="Ellipse_8_copy_4_1_" xmlns="http://www.w3.org/2000/svg" xmlns:xlink="http://www.w3.org/1999/xlink"
	 x="0px" y="0px" width="120.96px" height="65.04px" viewBox="0 0 120.96 65.04" enable-background="new 0 0 120.96 65.04"
	 xml:space="preserve">
<g id="Ellipse_8_copy_4">
	<g>
		<path fill="#FFFFFF" d="M86.026,10.548c-2.63,0.034-5.114,0.761-7.354,2.036C75.445,5.032,69.083-0.091,61.863,0.001
			c-7.047,0.09-13.072,5.121-16.061,12.456c-2.326-1.258-4.885-1.944-7.563-1.91c-10.248,0.132-18.335,10.711-18.064,23.629
			c0.083,3.938,0.935,7.634,2.365,10.869C26.708,56.495,43.161,65.04,62.826,65.04c20.67,0,37.791-9.439,40.829-21.767
			c0.976-2.931,1.489-6.168,1.418-9.571C104.802,20.783,96.274,10.417,86.026,10.548z"/>
	</g>
</g>
</svg>
