<?xml version="1.0" encoding="utf-8"?>
<!-- Generator: Adobe Illustrator 16.0.0, SVG Export Plug-In . SVG Version: 6.00 Build 0)  -->
<!DOCTYPE svg PUBLIC "-//W3C//DTD SVG 1.1//EN" "http://www.w3.org/Graphics/SVG/1.1/DTD/svg11.dtd">
<svg version="1.1" id="lark_x5F_boy_1_" xmlns="http://www.w3.org/2000/svg" xmlns:xlink="http://www.w3.org/1999/xlink" x="0px"
	 y="0px" width="242px" height="319px" viewBox="0 0 242 319" enable-background="new 0 0 242 319" xml:space="preserve">
<g id="wing1">
	<g>
		<path fill="#4E3906" d="M236.541,185.313c-6.901-31.634-24.301-50.04-40.063-46.61c-15.761,3.43-23.916,27.396-17.015,59.029
			c6.901,31.633,34.275,95.757,50.037,92.327S243.442,216.947,236.541,185.313z"/>
	</g>
</g>
<g id="wing2">
	<g>
		<path fill="#4E3906" d="M45.629,139.188c-15.789-3.435-33.219,15-40.133,46.681c-6.914,31.681-8.736,101.469,7.053,104.903
			c15.789,3.434,43.211-60.785,50.125-92.466C69.588,166.624,61.418,142.622,45.629,139.188z"/>
	</g>
</g>
<g id="Polygon_1_copy_24">
	<g>
		<polygon fill="#D29302" points="105.653,29.878 160.972,61.755 196.558,26.218 		"/>
	</g>
</g>
<g id="Polygon_1_copy_23">
	<g>
		<polygon fill="#D29302" points="91.625,34.419 160.06,41.708 182.871,0.704 		"/>
	</g>
</g>
<g id="Ellipse_3_copy_9">
	<g>
		<path fill="#7A5602" d="M120.815,29.857c-56.305,0-87.591,40.688-87.591,101.434c0,60.744,31.286,168.299,87.591,168.299
			c56.306,0,87.592-107.555,87.592-168.299C208.407,70.546,177.121,29.857,120.815,29.857z"/>
	</g>
</g>
<g id="Rectangle_1_copy_6">
	<g>
		<path fill="#D29302" d="M120.815,29.857c-56.305,0-87.591,40.688-87.591,101.434c0,10.816,0.997,23.121,2.945,36.034h169.292
			c1.948-12.913,2.945-25.218,2.945-36.034C208.407,70.546,177.121,29.857,120.815,29.857z"/>
	</g>
</g>
<g id="Ellipse_4_copy_54">
	<g>
		<path fill-rule="evenodd" clip-rule="evenodd" fill="#654702" d="M141.661,237.453c-6.588,0-11.928,5.32-11.928,11.883
			c0,6.563,5.34,11.884,11.928,11.884s11.928-5.32,11.928-11.884C153.589,242.773,148.249,237.453,141.661,237.453z
			 M102.995,237.453c-6.588,0-11.928,5.32-11.928,11.883c0,6.563,5.34,11.884,11.928,11.884s11.928-5.32,11.928-11.884
			C114.923,242.773,109.583,237.453,102.995,237.453z"/>
	</g>
</g>
<g id="Ellipse_4_copy_53">
	<g>
		<path fill-rule="evenodd" clip-rule="evenodd" fill="#7A5602" d="M141.661,230.765c-6.588,0-11.928,5.32-11.928,11.883
			s5.34,11.883,11.928,11.883s11.928-5.32,11.928-11.883S148.249,230.765,141.661,230.765z M102.995,230.765
			c-6.588,0-11.928,5.32-11.928,11.883s5.34,11.883,11.928,11.883s11.928-5.32,11.928-11.883S109.583,230.765,102.995,230.765z"/>
	</g>
</g>
<g id="Ellipse_4_copy_52">
	<g>
		<path fill-rule="evenodd" clip-rule="evenodd" fill="#654702" d="M79.544,201.008c-6.768,0-12.255,5.495-12.255,12.274
			s5.487,12.274,12.255,12.274c6.769,0,12.255-5.495,12.255-12.274S86.313,201.008,79.544,201.008z M160.686,201.008
			c-6.769,0-12.255,5.495-12.255,12.274s5.486,12.274,12.255,12.274c6.768,0,12.255-5.495,12.255-12.274
			S167.453,201.008,160.686,201.008z"/>
	</g>
</g>
<g id="Ellipse_4_copy_51">
	<g>
		<path fill-rule="evenodd" clip-rule="evenodd" fill="#7A5602" d="M79.544,194.318c-6.768,0-12.255,5.496-12.255,12.274
			c0,6.779,5.487,12.274,12.255,12.274c6.769,0,12.255-5.495,12.255-12.274C91.799,199.814,86.313,194.318,79.544,194.318z
			 M160.686,194.318c-6.769,0-12.255,5.496-12.255,12.274c0,6.779,5.486,12.274,12.255,12.274c6.768,0,12.255-5.495,12.255-12.274
			C172.94,199.814,167.453,194.318,160.686,194.318z M120.96,194.318c-6.768,0-12.255,5.496-12.255,12.274
			c0,6.779,5.487,12.274,12.255,12.274c6.769,0,12.255-5.495,12.255-12.274C133.215,199.814,127.729,194.318,120.96,194.318z"/>
	</g>
</g>
<g id="Polygon_2_copy_13">
	<g>
		<polygon fill="#24AFA7" points="105.804,167.339 120.331,192.876 134.858,167.339 		"/>
	</g>
</g>
<g id="Polygon_2_copy_12">
	<g>
		<polygon fill="#24AFA7" points="119.876,168.09 101.334,219.644 120.703,242.446 140.072,219.644 		"/>
	</g>
</g>
<g id="Rounded_Rectangle_1_copy_23">
	<g>
		<path fill="#DEA34B" d="M98.997,282.914c-3.936,0-7.126,4.56-7.126,10.185v15.43c0,5.625,3.19,10.185,7.126,10.185
			c3.935,0,7.125-4.56,7.125-10.185v-15.43C106.122,287.474,102.932,282.914,98.997,282.914z"/>
	</g>
</g>
<g id="Rounded_Rectangle_1_copy_22">
	<g>
		<path fill="#DEA34B" d="M83.462,282.914c-3.936,0-7.126,4.56-7.126,10.185v15.43c0,5.625,3.19,10.185,7.126,10.185
			s7.125-4.56,7.125-10.185v-15.43C90.587,287.474,87.397,282.914,83.462,282.914z"/>
	</g>
</g>
<g id="Rounded_Rectangle_1_copy_21">
	<g>
		<path fill="#DEA34B" d="M67.495,282.914c-3.936,0-7.126,4.56-7.126,10.185v15.43c0,5.625,3.19,10.185,7.126,10.185
			c3.935,0,7.125-4.56,7.125-10.185v-15.43C74.62,287.474,71.43,282.914,67.495,282.914z"/>
	</g>
</g>
<g id="Rounded_Rectangle_1_copy_20">
	<g>
		<path fill="#DEA34B" d="M174.82,282.914c-3.936,0-7.126,4.56-7.126,10.185v15.43c0,5.625,3.19,10.185,7.126,10.185
			c3.935,0,7.125-4.56,7.125-10.185v-15.43C181.945,287.474,178.755,282.914,174.82,282.914z"/>
	</g>
</g>
<g id="Rounded_Rectangle_1_copy_19">
	<g>
		<path fill="#DEA34B" d="M159.285,282.914c-3.936,0-7.126,4.56-7.126,10.185v15.43c0,5.625,3.19,10.185,7.126,10.185
			s7.125-4.56,7.125-10.185v-15.43C166.41,287.474,163.221,282.914,159.285,282.914z"/>
	</g>
</g>
<g id="Rounded_Rectangle_1_copy_18">
	<g>
		<path fill="#DEA34B" d="M143.318,282.914c-3.936,0-7.126,4.56-7.126,10.185v15.43c0,5.625,3.19,10.185,7.126,10.185
			c3.935,0,7.125-4.56,7.125-10.185v-15.43C150.443,287.474,147.253,282.914,143.318,282.914z"/>
	</g>
</g>
<g id="Ellipse_1_copy">
	<g>
		<ellipse fill="#FFFFFF" cx="155.832" cy="102.071" rx="33.122" ry="33.484"/>
	</g>
</g>
<g id="Ellipse_1">
	<g>
		<ellipse cx="155.585" cy="101.678" rx="19.537" ry="19.824"/>
	</g>
</g>
<g id="Ellipse_2">
	<g>
		<path fill="#2F91BA" d="M156.645,117.737c3.763-0.334,7.396-2.149,9.976-5.351c2.209-2.741,3.283-6.047,3.28-9.331
			C169.897,98.791,153.004,118.061,156.645,117.737z"/>
	</g>
</g>
<g id="Ellipse_1_copy_3">
	<g>
		<ellipse fill="#FFFFFF" cx="145.553" cy="89.22" rx="7.921" ry="8.037"/>
	</g>
</g>
<g id="Ellipse_1_copy_1_">
	<g>
		<ellipse fill="#FFFFFF" cx="82.698" cy="102.071" rx="33.122" ry="33.484"/>
	</g>
</g>
<g id="Ellipse_1_1_">
	<g>
		<ellipse cx="82.717" cy="101.678" rx="19.537" ry="19.824"/>
	</g>
</g>
<g id="Ellipse_2_copy">
	<g>
		<path fill="#2F91BA" d="M83.185,117.737c3.818-0.327,7.505-2.104,10.123-5.238c2.241-2.684,3.332-5.919,3.329-9.135
			C96.634,99.189,79.49,118.054,83.185,117.737z"/>
	</g>
</g>
<g id="Ellipse_1_copy_3_1_">
	<g>
		<ellipse fill="#FFFFFF" cx="72.685" cy="89.22" rx="7.92" ry="8.037"/>
	</g>
</g>
<g id="Polygon_1_copy_19">
	<g>
		<polygon points="123.897,134.415 87.788,166.405 128.266,153.232 		"/>
	</g>
</g>
<g id="Polygon_1_copy_18">
	<g>
		<polygon fill="#4E3906" points="121.703,127.607 81.299,141.068 128.692,153.134 		"/>
	</g>
</g>
</svg>
