<?xml version="1.0" encoding="utf-8"?>
<!-- Generator: Adobe Illustrator 16.0.0, SVG Export Plug-In . SVG Version: 6.00 Build 0)  -->
<!DOCTYPE svg PUBLIC "-//W3C//DTD SVG 1.1//EN" "http://www.w3.org/Graphics/SVG/1.1/DTD/svg11.dtd">
<svg version="1.1" xmlns="http://www.w3.org/2000/svg" xmlns:xlink="http://www.w3.org/1999/xlink" x="0px" y="0px" width="93.12px"
	 height="130.08px" viewBox="0 0 93.12 130.08" enable-background="new 0 0 93.12 130.08" xml:space="preserve">
<g id="wing2_1_" enable-background="new    ">
	<g id="wing2">
		<g>
			<path fill="#4E3906" d="M87.798,77.655c-2.478-11.388-8.724-18.014-14.381-16.78s-8.585,9.863-6.107,21.25
				s12.303,34.473,17.961,33.237C90.928,114.129,90.274,89.043,87.798,77.655z"/>
		</g>
	</g>
</g>
<g id="wing1_1_" enable-background="new    ">
	<g id="wing1">
		<g>
			<path fill="#4E3906" d="M19.603,60.066c-5.667-1.236-11.924,5.4-14.406,16.805c-2.482,11.405-3.136,36.528,2.532,37.765
				c5.667,1.236,15.511-21.883,17.992-33.287C28.203,69.943,25.27,61.302,19.603,60.066z"/>
		</g>
	</g>
</g>
<g id="_x31__1_" enable-background="new    ">
	<g id="_x31_">
		<g>
			<path fill="#7A5602" d="M46.591,21.2c-20.21,0-31.441,14.647-31.441,36.516c0,21.868,11.23,60.587,31.441,60.587
				c20.211,0,31.441-38.72,31.441-60.587C78.032,35.847,66.802,21.2,46.591,21.2z"/>
		</g>
	</g>
</g>
<g id="_x32__1_" enable-background="new    ">
	<g id="_x32_">
		<g>
			<path fill="#D29302" d="M66.133,27.546l7.646-7.657l-10.237,0.414l5.324-9.598L37.575,22.3
				C23.07,26.083,15.15,39.353,15.15,57.715c0,3.907,0.36,8.353,1.064,13.018h60.753c0.704-4.665,1.064-9.111,1.064-13.018
				C78.032,44.448,73.897,33.84,66.133,27.546z"/>
		</g>
	</g>
</g>
<g id="_x33__1_" enable-background="new    ">
	<g id="_x33_">
		<g>
			<path fill="#E992FF" d="M61.984,83.629c-4.625,1.377-9.686,2.138-14.991,2.138c-5.32,0-10.393-0.765-15.027-2.148
				c-1.506,2.574-2.374,5.567-2.374,8.765c0,9.601,7.781,17.383,17.379,17.383c9.598,0,17.378-7.782,17.378-17.383
				C64.351,89.19,63.486,86.2,61.984,83.629z"/>
		</g>
	</g>
</g>
<g id="_x34__1_" enable-background="new    ">
	<g id="_x34_">
		<g>
			<path fill="#FFFFFF" d="M41.015,100.813c-1.159,0-2.099,0.939-2.099,2.098s0.94,2.097,2.099,2.097s2.099-0.938,2.099-2.097
				S42.174,100.813,41.015,100.813z M41.015,93.725c-1.159,0-2.099,0.939-2.099,2.098s0.94,2.097,2.099,2.097
				s2.099-0.938,2.099-2.097S42.174,93.725,41.015,93.725z M58.677,94.593c1.159,0,2.099-0.939,2.099-2.098
				s-0.939-2.098-2.099-2.098s-2.1,0.939-2.1,2.098S57.518,94.593,58.677,94.593z M35.079,90.397c-1.159,0-2.099,0.939-2.099,2.098
				s0.94,2.098,2.099,2.098s2.099-0.939,2.099-2.098S36.238,90.397,35.079,90.397z M41.015,86.926c-1.159,0-2.099,0.939-2.099,2.098
				s0.94,2.098,2.099,2.098s2.099-0.939,2.099-2.098S42.174,86.926,41.015,86.926z M35.079,97.196c-1.159,0-2.099,0.939-2.099,2.098
				s0.94,2.097,2.099,2.097s2.099-0.938,2.099-2.097S36.238,97.196,35.079,97.196z M53.176,93.725c-1.16,0-2.1,0.939-2.1,2.098
				s0.939,2.097,2.1,2.097c1.159,0,2.099-0.938,2.099-2.097S54.335,93.725,53.176,93.725z M53.176,86.926
				c-1.16,0-2.1,0.939-2.1,2.098s0.939,2.098,2.1,2.098c1.159,0,2.099-0.939,2.099-2.098S54.335,86.926,53.176,86.926z
				 M46.806,104.284c-1.16,0-2.099,0.939-2.099,2.098s0.939,2.097,2.099,2.097c1.159,0,2.099-0.938,2.099-2.097
				S47.965,104.284,46.806,104.284z M53.176,100.813c-1.16,0-2.1,0.939-2.1,2.098s0.939,2.097,2.1,2.097
				c1.159,0,2.099-0.938,2.099-2.097S54.335,100.813,53.176,100.813z M58.677,97.196c-1.159,0-2.1,0.939-2.1,2.098
				s0.94,2.097,2.1,2.097s2.099-0.938,2.099-2.097S59.836,97.196,58.677,97.196z M46.806,90.397c-1.16,0-2.099,0.939-2.099,2.098
				s0.939,2.098,2.099,2.098c1.159,0,2.099-0.939,2.099-2.098S47.965,90.397,46.806,90.397z M46.806,97.196
				c-1.16,0-2.099,0.939-2.099,2.098s0.939,2.097,2.099,2.097c1.159,0,2.099-0.938,2.099-2.097S47.965,97.196,46.806,97.196z"/>
		</g>
	</g>
</g>
<g id="_x35__1_" enable-background="new    ">
	<g id="_x35_">
		<g>
			<path fill="#D671F0" d="M18.868,83.349c0.458,1.692,0.958,3.378,1.499,5.043h52.449c0.541-1.665,1.041-3.351,1.499-5.043H18.868z
				"/>
		</g>
	</g>
</g>
<g id="_x36__1_" enable-background="new    ">
	<g id="_x36_">
		<g>
			<path fill-rule="evenodd" clip-rule="evenodd" fill="#DEA34B" d="M38.759,112.3c-1.413,0-2.558,1.641-2.558,3.666v5.555
				c0,2.024,1.145,3.666,2.558,3.666s2.558-1.642,2.558-3.666v-5.555C41.316,113.94,40.171,112.3,38.759,112.3z M33.183,112.3
				c-1.413,0-2.558,1.641-2.558,3.666v5.555c0,2.024,1.145,3.666,2.558,3.666s2.558-1.642,2.558-3.666v-5.555
				C35.74,113.94,34.595,112.3,33.183,112.3z M27.451,112.3c-1.413,0-2.558,1.641-2.558,3.666v5.555
				c0,2.024,1.145,3.666,2.558,3.666s2.558-1.642,2.558-3.666v-5.555C30.009,113.94,28.864,112.3,27.451,112.3z M65.976,112.3
				c-1.412,0-2.558,1.641-2.558,3.666v5.555c0,2.024,1.146,3.666,2.558,3.666c1.413,0,2.558-1.642,2.558-3.666v-5.555
				C68.533,113.94,67.389,112.3,65.976,112.3z M60.399,112.3c-1.412,0-2.558,1.641-2.558,3.666v5.555
				c0,2.024,1.146,3.666,2.558,3.666c1.413,0,2.558-1.642,2.558-3.666v-5.555C62.957,113.94,61.813,112.3,60.399,112.3z
				 M54.668,112.3c-1.412,0-2.558,1.641-2.558,3.666v5.555c0,2.024,1.146,3.666,2.558,3.666c1.413,0,2.558-1.642,2.558-3.666v-5.555
				C57.226,113.94,56.081,112.3,54.668,112.3z"/>
		</g>
	</g>
</g>
<g id="_x38__1_" enable-background="new    ">
	<g id="_x38_">
		<g>
			<path fill-rule="evenodd" clip-rule="evenodd" fill="#7A5602" d="M33.991,33.993c-4.417,0-8.342,2.125-10.818,5.412l-1.85-1.112
				c-0.404-0.242-0.905-0.125-1.12,0.262s-0.062,0.897,0.342,1.14l3.133,1.882c0.128,0.077,0.266,0.114,0.401,0.122
				c3.998,3.116,9.753,7.385,9.753,7.385s7.394-5.543,11.553-8.854C42.969,36.477,38.769,33.993,33.991,33.993z M73.189,38.555
				c-0.215-0.387-0.716-0.504-1.12-0.262l-1.85,1.112c-2.478-3.288-6.401-5.412-10.818-5.412c-4.777,0-8.978,2.484-11.395,6.237
				c4.159,3.311,11.553,8.854,11.553,8.854s5.756-4.269,9.753-7.385c0.136-0.008,0.273-0.044,0.402-0.122l3.133-1.882
				C73.251,39.453,73.404,38.942,73.189,38.555z"/>
		</g>
	</g>
</g>
<g id="Ellipse_1_copy_1_" enable-background="new    ">
	<g id="Ellipse_1_copy">
		<g>
			<path fill-rule="evenodd" clip-rule="evenodd" fill="#FFFFFF" d="M59.604,35.49c-6.437,0-11.655,5.245-11.655,11.716
				s5.219,11.716,11.655,11.716c6.438,0,11.656-5.246,11.656-11.716S66.043,35.49,59.604,35.49z M33.869,35.49
				c-6.438,0-11.656,5.245-11.656,11.716s5.218,11.716,11.656,11.716c6.437,0,11.656-5.246,11.656-11.716S40.306,35.49,33.869,35.49
				z"/>
		</g>
	</g>
</g>
<g id="Ellipse_1_3_" enable-background="new    ">
	<g id="Ellipse_1">
		<g>
			<ellipse cx="59.519" cy="47.068" rx="6.876" ry="6.937"/>
		</g>
	</g>
</g>
<g id="Ellipse_2_1_" enable-background="new    ">
	<g id="Ellipse_2">
		<g>
			<path fill="#2F91BA" d="M59.891,52.688c1.324-0.117,2.603-0.752,3.511-1.872c0.777-0.959,1.155-2.116,1.154-3.265
				C64.555,46.059,58.609,52.801,59.891,52.688z"/>
		</g>
	</g>
</g>
<g id="Ellipse_1_copy_3_3_" enable-background="new    ">
	<g id="Ellipse_1_copy_3">
		<g>
			<ellipse fill="#FFFFFF" cx="55.987" cy="42.71" rx="2.787" ry="2.812"/>
		</g>
	</g>
</g>
<g id="Ellipse_1_2_" enable-background="new    ">
	<g id="Ellipse_1_1_">
		<g>
			<ellipse cx="33.875" cy="47.068" rx="6.875" ry="6.937"/>
		</g>
	</g>
</g>
<g id="Ellipse_2_copy_1_" enable-background="new    ">
	<g id="Ellipse_2_copy">
		<g>
			<path fill="#2F91BA" d="M34.04,52.688c1.344-0.115,2.641-0.736,3.563-1.833c0.789-0.939,1.172-2.071,1.171-3.196
				C38.772,46.198,32.739,52.798,34.04,52.688z"/>
		</g>
	</g>
</g>
<g id="Ellipse_1_copy_3_2_" enable-background="new    ">
	<g id="Ellipse_1_copy_3_1_">
		<g>
			<ellipse fill="#FFFFFF" cx="30.345" cy="42.71" rx="2.788" ry="2.812"/>
		</g>
	</g>
</g>
<g id="Polygon_1_copy_11_1_" enable-background="new    ">
	<g id="Polygon_1_copy_11">
		<g>
			<polygon points="48.412,59.663 34.443,69.912 49.349,66.554 			"/>
		</g>
	</g>
</g>
<g id="Polygon_1_copy_17_1_" enable-background="new    ">
	<g id="Polygon_1_copy_17">
		<g>
			<polygon fill="#4E3906" points="47.854,57.148 32.965,60.613 49.504,66.532 			"/>
		</g>
	</g>
</g>
<g id="flower2_1_" enable-background="new    ">
	<g id="flower2">
		<g>
			<path fill="#D671F0" d="M39.936,11.806c0,0-4.607-9.738-11.71-6.25c-5.618,2.757-1.788,10.593-1.788,10.593
				s-8.241-0.231-7.09,5.306c4.36,2.489,10.064,4.793,10.064,4.793l13.439-5.376c0,0,2.082-7.473,2.826-10.656
				C43.177,8.393,39.936,11.806,39.936,11.806z"/>
		</g>
	</g>
</g>
<g id="Shape_2_copy_1_" enable-background="new    ">
	<g id="Shape_2_copy">
		<g>
			<path fill="#E992FF" d="M44.758,9.773c-1.757,2.498-4.09,6.078-4.772,8.362c-0.909-4.046-3.956-7.237-7.132-6.319
				c-3.805,1.1-3.551,6.183-3.92,7.918c-1.482-0.445-6.104-1.065-9.685,0.471c-0.023,0.38,0.003,0.793,0.098,1.248
				c4.36,2.489,10.064,4.793,10.064,4.793l13.439-5.376c0,0,2.082-7.473,2.826-10.656C45.379,9.997,45.07,9.856,44.758,9.773z"/>
		</g>
	</g>
</g>
</svg>
