<?xml version="1.0" encoding="utf-8"?>
<!-- Generator: Adobe Illustrator 16.0.0, SVG Export Plug-In . SVG Version: 6.00 Build 0)  -->
<!DOCTYPE svg PUBLIC "-//W3C//DTD SVG 1.1//EN" "http://www.w3.org/Graphics/SVG/1.1/DTD/svg11.dtd">
<svg version="1.1" id="Layer_1" xmlns="http://www.w3.org/2000/svg" xmlns:xlink="http://www.w3.org/1999/xlink" x="0px" y="0px"
	 width="342px" height="162px" viewBox="0 0 743.89 351.136" enable-background="new 0 0 743.89 351.136"
	 xml:space="preserve">
<path fill="#BBBCBC" d="M261.367,254.837c-26.781,0-49.347,21.431-49.347,49.362c0,27.043,22.183,48.843,49.347,48.843
	c27.16,0,49.355-21.8,49.355-48.843C310.722,276.268,288.15,254.837,261.367,254.837 M261.367,336.732
	c-17.988,0-31.883-15.186-31.883-32.655c0-18.116,14.158-32.91,31.883-32.91c17.729,0,31.88,14.794,31.88,32.91
	C293.247,321.546,279.352,336.732,261.367,336.732 M369.925,328.183h-0.262l-25.117-71.421h-24.227v94.374h17.47v-70.787h0.256
	l24.229,70.787h14.786l24.111-70.787h0.377v70.787h17.475v-94.374h-24.237L369.925,328.183z M426.032,273.087h17.481v78.049h17.464
	v-78.049h17.604v-16.325h-52.549V273.087z M503.721,325.374h-0.254v-68.611h-17.479v94.374h19.52l39.409-68.618h0.257v68.618h17.464
	v-94.374h-19.889L503.721,325.374z M623.821,256.762l-29.461,40.812h-0.251v-40.812h-17.47v94.374h17.47v-41.454h0.251
	l29.461,41.454h20.534l-35.579-47.955l35.579-46.419H623.821z M128.054,351.136h17.476l15.468-78.153h25.351v78.153h17.473v-94.374
	h-57.311L128.054,351.136z M49.609,219.32h-0.263l-25.126-71.417H0v94.365h17.476v-70.78h0.244l24.242,70.78h14.792l24.105-70.78
	h0.381v70.78h17.47v-94.365H74.482L49.609,219.32z M158.515,145.98c-26.774,0-49.347,21.421-49.347,49.356
	c0,27.043,22.179,48.843,49.347,48.843c27.161,0,49.356-21.8,49.356-48.843C207.871,167.401,185.3,145.98,158.515,145.98
	 M158.515,227.857c-17.97,0-31.877-15.179-31.877-32.654c0-18.11,14.157-32.902,31.877-32.902c17.741,0,31.893,14.792,31.893,32.902
	C190.407,212.678,176.512,227.857,158.515,227.857 M240.896,164.11h25.345v78.157h17.476v-94.365h-57.313l-18.457,94.365h17.481
	L240.896,164.11z M343.538,244.179c27.167,0,49.354-21.8,49.354-48.843c0-27.935-22.573-49.356-49.354-49.356
	c-26.787,0-49.361,21.421-49.361,49.356C294.176,222.379,316.365,244.179,343.538,244.179 M343.538,162.3
	c17.726,0,31.879,14.792,31.879,32.902c0,17.476-13.897,32.654-31.879,32.654c-17.997,0-31.886-15.179-31.886-32.654
	C311.651,177.092,325.803,162.3,343.538,162.3 M499.914,202.604h33.799v39.663h17.469v-94.365h-17.469v38.378h-33.799v-38.378
	h-17.47v94.365h17.47V202.604z M617.65,234.741c6.108-5.617,8.911-12.88,8.911-21.679c0-8.792-2.803-16.069-8.911-21.688
	c-8.939-7.523-17.604-7.523-27.685-7.523h-6.258v-35.964h-17.464v94.38h23.722C600.046,242.267,608.711,242.267,617.65,234.741
	 M583.708,200.173h5.612c7.533,0,19.771,0.514,19.771,12.889c0,12.368-11.988,12.873-19.126,12.873h-6.258V200.173z
	 M634.467,242.267h17.482v-94.365h-17.482V242.267z M723.995,147.902l-39.017,68.603h-0.263v-68.603h-17.469v94.365h19.506
	l39.416-68.612h0.251v68.612h17.47v-94.365H723.995z M432.746,212.514c6.939,0,12.17-1.877,16.397-4.777v34.475h17.476v-94.379
	h-17.67v31.843c0,4.729-0.646,16.524-16.332,16.524c-15.189,0-16.316-11.795-16.316-16.524l0.116-31.843h-17.58v31.843
	c0,11.606,2.803,15.24,5.856,19.322C408.765,204.475,418.335,212.514,432.746,212.514 M721.064,125.732h10.753
	c0,8.954-7.652,20.179-25.39,20.179c-17.201,0-24.765-11.225-24.765-20.179h10.75c1.353,7.342,6.038,9.371,14.265,9.371
	C715.006,135.103,719.131,132.8,721.064,125.732"/>
<path fill="#009EE3" d="M261.367,254.837c-26.781,0-49.347,21.431-49.347,49.362c0,27.043,22.183,48.843,49.347,48.843
	c27.16,0,49.355-21.8,49.355-48.843C310.722,276.268,288.15,254.837,261.367,254.837 M261.367,336.732
	c-17.988,0-31.883-15.186-31.883-32.655c0-18.116,14.158-32.91,31.883-32.91c17.729,0,31.88,14.794,31.88,32.91
	C293.247,321.546,279.352,336.732,261.367,336.732 M369.925,328.183h-0.262l-25.117-71.421h-24.227v94.374h17.47v-70.787h0.256
	l24.229,70.787h14.786l24.111-70.787h0.377v70.787h17.475v-94.374h-24.237L369.925,328.183z M426.032,273.087h17.481v78.049h17.464
	v-78.049h17.604v-16.325h-52.549V273.087z M503.721,325.374h-0.254v-68.611h-17.479v94.374h19.52l39.409-68.618h0.257v68.618h17.464
	v-94.374h-19.889L503.721,325.374z M623.821,256.762l-29.461,40.812h-0.251v-40.812h-17.47v94.374h17.47v-41.454h0.251
	l29.461,41.454h20.534l-35.579-47.955l35.579-46.419H623.821z M128.054,351.136h17.476l15.468-78.153h25.351v78.153h17.473v-94.374
	h-57.311L128.054,351.136z M49.609,219.32h-0.263l-25.126-71.417H0v94.365h17.476v-70.78h0.244l24.242,70.78h14.792l24.105-70.78
	h0.381v70.78h17.47v-94.365H74.482L49.609,219.32z M158.515,145.98c-26.774,0-49.347,21.421-49.347,49.356
	c0,27.043,22.179,48.843,49.347,48.843c27.161,0,49.356-21.8,49.356-48.843C207.871,167.401,185.3,145.98,158.515,145.98
	 M158.515,227.857c-17.97,0-31.877-15.179-31.877-32.654c0-18.11,14.157-32.902,31.877-32.902c17.741,0,31.893,14.792,31.893,32.902
	C190.407,212.678,176.512,227.857,158.515,227.857 M240.896,164.11h25.345v78.157h17.476v-94.365h-57.313l-18.457,94.365h17.481
	L240.896,164.11z M343.538,244.179c27.167,0,49.354-21.8,49.354-48.843c0-27.935-22.573-49.356-49.354-49.356
	c-26.787,0-49.361,21.421-49.361,49.356C294.176,222.379,316.365,244.179,343.538,244.179 M343.538,162.3
	c17.726,0,31.879,14.792,31.879,32.902c0,17.476-13.897,32.654-31.879,32.654c-17.997,0-31.886-15.179-31.886-32.654
	C311.651,177.092,325.803,162.3,343.538,162.3 M499.914,202.604h33.799v39.663h17.469v-94.365h-17.469v38.378h-33.799v-38.378
	h-17.47v94.365h17.47V202.604z M617.65,234.741c6.108-5.617,8.911-12.88,8.911-21.679c0-8.792-2.803-16.069-8.911-21.688
	c-8.939-7.523-17.604-7.523-27.685-7.523h-6.258v-35.964h-17.464v94.38h23.722C600.046,242.267,608.711,242.267,617.65,234.741
	 M583.708,200.173h5.612c7.533,0,19.771,0.514,19.771,12.889c0,12.368-11.988,12.873-19.126,12.873h-6.258V200.173z
	 M634.467,242.267h17.482v-94.365h-17.482V242.267z M723.995,147.902l-39.017,68.603h-0.263v-68.603h-17.469v94.365h19.506
	l39.416-68.612h0.251v68.612h17.47v-94.365H723.995z M432.746,212.514c6.939,0,12.17-1.877,16.397-4.777v34.475h17.476v-94.379
	h-17.67v31.843c0,4.729-0.646,16.524-16.332,16.524c-15.189,0-16.316-11.795-16.316-16.524l0.116-31.843h-17.58v31.843
	c0,11.606,2.803,15.24,5.856,19.322C408.765,204.475,418.335,212.514,432.746,212.514 M721.064,125.732h10.753
	c0,8.954-7.652,20.179-25.39,20.179c-17.201,0-24.765-11.225-24.765-20.179h10.75c1.353,7.342,6.038,9.371,14.265,9.371
	C715.006,135.103,719.131,132.8,721.064,125.732"/>
<polygon points="250.115,24.084 214.72,66.718 249.067,132.675 213.147,132.794 191.975,93.135 182.998,103.513 182.933,132.733 
	150.45,132.733 150.276,0 182.998,0 182.998,57.622 212.44,24.084 "/>
<path fill-rule="evenodd" clip-rule="evenodd" fill="#EA5418" d="M281.048,49.694h-30.085l0.055-25.531h30.144L281.048,49.694z
	 M281.161,132.785l-0.113-80.639h-30.085l-0.119,80.639H281.161z M285.672,52.319l-0.057,80.752l28.976-0.116l0.183-54.047
	c2.032-11.718,21.043-12.65,22.386,0.347l-0.064,53.7h29.208V79.837c0.818-35.859-39.354-32.002-52.237-23.786
	c-0.286,0.175-1.454-3.787-1.454-3.787L285.672,52.319z M585.578,57.98l-0.64-5.542l-27.347,0.064v79.646h28.512l-0.061-45.018
	c1.993-17.491,21.521-12.473,23.332-13.353l-0.062-22.965C596.895,47.658,585.578,57.98,585.578,57.98 M433.869,25.098v31.834
	c-5.187-3.327-12.948-7.238-22.626-6.876c-68.687,2.264-47.981,109.902,23.385,78.132l0.697,4.484h27.692l-0.229-107.288
	L433.869,25.098z M414.862,68.882c9.562,0,18.25,7.11,18.067,24.083c-0.109,13.003-6.233,22.618-18.011,22.274
	c-15.808-0.53-17.616-17.321-17.616-22.923C397.193,82.414,402.263,68.824,414.862,68.882 M510.949,49.813
	c-16.966-0.469-43.91,11.716-44.074,43.146c-0.188,26.25,22.735,41.992,45.772,41.467c35.981-0.816,41.058-27.529,41.058-27.529
	h-28.932c0,0-2.395,8.287-13.001,7.93c-15.867-0.523-15.984-14.338-15.984-14.338l59.671-0.062
	C555.459,100.427,563.376,51.147,510.949,49.813 M495.905,82.177c3.154-11.438,12.655-12.424,16.858-12.424
	c6.306,0,13.99,2.739,15.691,12.424H495.905z"/>
</svg>
