<?xml version="1.0" encoding="utf-8"?>
<!-- Generator: Adobe Illustrator 16.0.0, SVG Export Plug-In . SVG Version: 6.00 Build 0)  -->
<!DOCTYPE svg PUBLIC "-//W3C//DTD SVG 1.1//EN" "http://www.w3.org/Graphics/SVG/1.1/DTD/svg11.dtd">
<svg version="1.1" xmlns="http://www.w3.org/2000/svg" xmlns:xlink="http://www.w3.org/1999/xlink" x="0px" y="0px"
	 width="358.604px" height="437.474px" viewBox="0 0 358.604 437.474" enable-background="new 0 0 358.604 437.474"
	 xml:space="preserve">
<g id="wing2_1_" enable-background="new    ">
</g>
<g id="wing1_1_" enable-background="new    ">
</g>
<g id="Rectangle_2_copy_5_1_" enable-background="new    ">
</g>
<g id="Ellipse_6_copy_11_1_" enable-background="new    ">
</g>
<g id="Ellipse_6_copy_10_1_" enable-background="new    ">
</g>
<g id="Ellipse_4_copy_59_1_" enable-background="new    ">
</g>
<g id="Ellipse_4_copy_54_1_" enable-background="new    ">
</g>
<g id="Rectangle_1_copy_8_1_" enable-background="new    ">
</g>
<g id="Ellipse_1_copy_2_3_" enable-background="new    ">
</g>
<g id="Ellipse_1_copy_2_2_" enable-background="new    ">
</g>
<g id="Rounded_Rectangle_1_copy_4_1_" enable-background="new    ">
</g>
<g id="Ellipse_1_copy_1_" enable-background="new    ">
</g>
<g id="Group_1_1_">
</g>
<g id="Group_2_1_">
</g>
<g id="Rounded_Rectangle_1_copy_82_1_" enable-background="new    ">
	<g id="Rounded_Rectangle_1_copy_82">
		<g>
			<path fill-rule="evenodd" clip-rule="evenodd" fill="#DEA34B" d="M144.327,384.179c-5.793,0-10.488,6.788-10.488,15.161v22.973
				c0,8.373,4.695,15.161,10.488,15.161s10.489-6.788,10.489-15.161V399.34C154.816,390.967,150.12,384.179,144.327,384.179z
				 M121.46,384.179c-5.793,0-10.489,6.788-10.489,15.161v22.973c0,8.373,4.696,15.161,10.489,15.161s10.488-6.788,10.488-15.161
				V399.34C131.948,390.967,127.253,384.179,121.46,384.179z M97.956,384.179c-5.793,0-10.489,6.788-10.489,15.161v22.973
				c0,8.373,4.696,15.161,10.489,15.161s10.489-6.788,10.489-15.161V399.34C108.445,390.967,103.749,384.179,97.956,384.179z
				 M255.941,384.179c-5.793,0-10.489,6.788-10.489,15.161v22.973c0,8.373,4.696,15.161,10.489,15.161s10.489-6.788,10.489-15.161
				V399.34C266.431,390.967,261.734,384.179,255.941,384.179z M233.073,384.179c-5.793,0-10.488,6.788-10.488,15.161v22.973
				c0,8.373,4.695,15.161,10.488,15.161s10.489-6.788,10.489-15.161V399.34C243.562,390.967,238.866,384.179,233.073,384.179z
				 M209.57,384.179c-5.793,0-10.489,6.788-10.489,15.161v22.973c0,8.373,4.696,15.161,10.489,15.161s10.488-6.788,10.488-15.161
				V399.34C220.059,390.967,215.363,384.179,209.57,384.179z"/>
		</g>
	</g>
</g>
<g id="Group_3_1_">
</g>
<g id="flower1_1_" enable-background="new    ">
</g>
<g id="Shape_2_1_" enable-background="new    ">
</g>
</svg>
