<?xml version="1.0" encoding="utf-8"?>
<!-- Generator: Adobe Illustrator 16.0.0, SVG Export Plug-In . SVG Version: 6.00 Build 0)  -->
<!DOCTYPE svg PUBLIC "-//W3C//DTD SVG 1.1//EN" "http://www.w3.org/Graphics/SVG/1.1/DTD/svg11.dtd">
<svg version="1.1" xmlns="http://www.w3.org/2000/svg" xmlns:xlink="http://www.w3.org/1999/xlink" x="0px" y="0px"
	 width="250.016px" height="268.272px" viewBox="0 0 250.016 268.272" enable-background="new 0 0 250.016 268.272"
	 xml:space="preserve">
<g id="w2_1_" enable-background="new    ">
</g>
<g id="w1_1_" enable-background="new    ">
</g>
<g id="Ellipse_5_copy_9_1_" enable-background="new    ">
	<g id="Ellipse_5_copy_9">
		<g>
			<path fill="#A0A1B2" d="M33.449,0.008c-7.143-0.232-12.94,4.847-12.94,12.037c0,7.191,0.978,87.211,0.978,87.211
				s40.817-45.387,40.529-52.572C61.039,22.296,43.526,0.335,33.449,0.008z"/>
		</g>
	</g>
</g>
<g id="Ellipse_6_copy_9_1_" enable-background="new    ">
	<g id="Ellipse_6_copy_9">
		<g>
			<path fill="#858697" d="M32.229,15.779v24.468c6.284-0.502,11.231-5.782,11.231-12.233C43.46,21.562,38.513,16.281,32.229,15.779
				z"/>
		</g>
	</g>
</g>
<g id="Ellipse_5_copy_8_1_" enable-background="new    ">
	<g id="Ellipse_5_copy_8">
		<g>
			<path fill="#A0A1B2" d="M216.566-0.976C206.49-0.647,188.977,21.313,188,45.701c-0.287,7.185,40.53,52.572,40.53,52.572
				s0.977-80.021,0.977-87.211C229.507,3.871,223.71-1.207,216.566-0.976z"/>
		</g>
	</g>
</g>
<g id="Ellipse_6_copy_8_1_" enable-background="new    ">
	<g id="Ellipse_6_copy_8">
		<g>
			<path fill="#858697" d="M206.557,28.014c0,6.451,4.946,11.731,11.23,12.233V15.779C211.503,16.281,206.557,21.562,206.557,28.014
				z"/>
		</g>
	</g>
</g>
<g id="Rectangle_2_copy_4_1_" enable-background="new    ">
	<g id="Rectangle_2_copy_4">
		<g>
			<rect x="43.948" y="24.082" fill="#A0A1B2" width="159.189" height="44.711"/>
		</g>
	</g>
</g>
<g id="Ellipse_3_copy_27_1_" enable-background="new    ">
	<g id="Ellipse_3_copy_27">
		<g>
			<path fill="#A0A1B2" d="M125.496,25.067c-57.982,0-104.987,28.661-104.987,86.127c0,57.467,47.005,139.392,104.987,139.392
				c57.983,0,104.987-81.925,104.987-139.392C230.483,53.729,183.479,25.067,125.496,25.067z"/>
		</g>
	</g>
</g>
<g id="Ellipse_4_copy_60_1_" enable-background="new    ">
	<g id="Ellipse_4_copy_60">
		<g>
			<path fill-rule="evenodd" clip-rule="evenodd" fill="#858697" d="M108.639,216.497c-5.073,0-9.349-3.393-10.707-8.034
				c-0.293,0.999-0.456,2.053-0.456,3.146c0,6.176,4.998,11.182,11.163,11.182c6.166,0,11.164-5.006,11.164-11.182
				c0-1.094-0.164-2.147-0.456-3.146C117.988,213.104,113.713,216.497,108.639,216.497z M144.827,216.497
				c-5.073,0-9.35-3.393-10.708-8.034c-0.292,0.999-0.456,2.053-0.456,3.146c0,6.176,4.999,11.182,11.164,11.182
				c6.166,0,11.164-5.006,11.164-11.182c0-1.094-0.164-2.147-0.457-3.146C154.177,213.104,149.9,216.497,144.827,216.497z
				 M97.719,174.538c-1.362,4.847-5.778,8.402-11.027,8.402c-5.25,0-9.665-3.556-11.027-8.402c-0.281,1.001-0.442,2.055-0.442,3.146
				c0,6.379,5.135,11.55,11.47,11.55c6.334,0,11.469-5.171,11.469-11.55C98.16,176.593,98,175.539,97.719,174.538z M173.659,174.538
				c-1.361,4.847-5.777,8.402-11.027,8.402c-5.249,0-9.665-3.556-11.027-8.402c-0.281,1.001-0.441,2.055-0.441,3.146
				c0,6.379,5.135,11.55,11.469,11.55c6.335,0,11.47-5.171,11.47-11.55C174.102,176.593,173.941,175.539,173.659,174.538z"/>
		</g>
	</g>
</g>
<g id="Polygon_2_copy_14_1_" enable-background="new    ">
	<g id="Polygon_2_copy_14">
		<g>
			<polygon fill="#033D7D" points="130.134,182.345 138.594,167.532 111.423,167.532 119.64,181.92 107.243,216.252 
				125.356,237.491 143.47,216.252 			"/>
		</g>
	</g>
</g>
<g id="Rounded_Rectangle_1_copy_81_1_" enable-background="new    ">
</g>
<g id="Rounded_Rectangle_1_copy_80_1_" enable-background="new    ">
</g>
<g id="Rounded_Rectangle_1_copy_79_1_" enable-background="new    ">
</g>
<g id="Rounded_Rectangle_1_copy_78_1_" enable-background="new    ">
</g>
<g id="Rounded_Rectangle_1_copy_77_1_" enable-background="new    ">
</g>
<g id="Rounded_Rectangle_1_copy_76_1_" enable-background="new    ">
</g>
<g id="Ellipse_1_copy_2_3_" enable-background="new    ">
	<g id="Ellipse_1_copy_2">
		<g>
			<ellipse fill="#B7BAC8" cx="86.955" cy="89.921" rx="51.797" ry="52.086"/>
		</g>
	</g>
</g>
<g id="Ellipse_1_copy_2_2_" enable-background="new    ">
	<g id="Ellipse_1_copy_2_1_">
		<g>
			<ellipse fill="#B7BAC8" cx="165.503" cy="89.921" rx="51.796" ry="52.086"/>
		</g>
	</g>
</g>
<g id="Ellipse_1_copy_3_" enable-background="new    ">
	<g id="Ellipse_1_copy">
		<g>
			<ellipse fill="#FFFFFF" cx="165.119" cy="89.9" rx="35.72" ry="36.218"/>
		</g>
	</g>
</g>
<g id="Ellipse_1_copy_2_" enable-background="new    ">
	<g id="Ellipse_1_copy_1_">
		<g>
			<ellipse fill="#FFFFFF" cx="87.616" cy="89.9" rx="35.72" ry="36.218"/>
		</g>
	</g>
</g>
<g id="Group_1_1_">
</g>
<g id="Group_2_1_">
</g>
<g id="Group_3_1_">
	<g id="Polygon_1_copy_26">
		<g>
			<polygon fill="#4E3906" points="125.836,112.937 105.553,153.982 137.925,140.304 			"/>
		</g>
	</g>
	<g id="Polygon_1_copy_25">
		<g>
			<path fill="#875812" d="M122.953,111.092c-16.852-3.646-27.369,21.122-27.369,21.122l42.713,7.932
				C138.297,140.146,139.716,114.717,122.953,111.092z"/>
		</g>
	</g>
</g>
</svg>
