<?xml version="1.0" encoding="utf-8"?>
<!-- Generator: Adobe Illustrator 16.0.0, SVG Export Plug-In . SVG Version: 6.00 Build 0)  -->
<!DOCTYPE svg PUBLIC "-//W3C//DTD SVG 1.1//EN" "http://www.w3.org/Graphics/SVG/1.1/DTD/svg11.dtd">
<svg version="1.1" xmlns="http://www.w3.org/2000/svg" xmlns:xlink="http://www.w3.org/1999/xlink" x="0px" y="0px"
	 width="250.016px" height="296.646px" viewBox="0 0 250.016 296.646" enable-background="new 0 0 250.016 296.646"
	 xml:space="preserve">
<g id="wing2_1_" enable-background="new    ">
</g>
<g id="wing1_1_" enable-background="new    ">
</g>
<g id="Ellipse_5_copy_7_1_" enable-background="new    ">
</g>
<g id="Ellipse_6_copy_7_1_" enable-background="new    ">
</g>
<g id="Ellipse_5_copy_6_1_" enable-background="new    ">
</g>
<g id="Ellipse_6_copy_6_1_" enable-background="new    ">
</g>
<g id="Rectangle_2_copy_3_1_" enable-background="new    ">
</g>
<g id="Ellipse_4_copy_61_1_" enable-background="new    ">
</g>
<g id="Rounded_Rectangle_1_copy_75_1_" enable-background="new    ">
	<g id="Rounded_Rectangle_1_copy_75">
		<g>
			<path fill="#DEA34B" d="M105.024,260.523c-3.636,0-6.583,4.247-6.583,9.487v14.373c0,5.24,2.947,9.487,6.583,9.487
				s6.582-4.247,6.582-9.487v-14.373C111.606,264.771,108.66,260.523,105.024,260.523z"/>
		</g>
	</g>
</g>
<g id="Rounded_Rectangle_1_copy_74_1_" enable-background="new    ">
	<g id="Rounded_Rectangle_1_copy_74">
		<g>
			<path fill="#DEA34B" d="M90.673,260.523c-3.636,0-6.582,4.247-6.582,9.487v14.373c0,5.24,2.946,9.487,6.582,9.487
				s6.583-4.247,6.583-9.487v-14.373C97.256,264.771,94.309,260.523,90.673,260.523z"/>
		</g>
	</g>
</g>
<g id="Rounded_Rectangle_1_copy_73_1_" enable-background="new    ">
	<g id="Rounded_Rectangle_1_copy_73">
		<g>
			<path fill="#DEA34B" d="M75.923,260.523c-3.636,0-6.583,4.247-6.583,9.487v14.373c0,5.24,2.947,9.487,6.583,9.487
				s6.583-4.247,6.583-9.487v-14.373C82.506,264.771,79.559,260.523,75.923,260.523z"/>
		</g>
	</g>
</g>
<g id="Rounded_Rectangle_1_copy_72_1_" enable-background="new    ">
	<g id="Rounded_Rectangle_1_copy_72">
		<g>
			<path fill="#DEA34B" d="M175.069,260.523c-3.635,0-6.583,4.247-6.583,9.487v14.373c0,5.24,2.948,9.487,6.583,9.487
				c3.636,0,6.583-4.247,6.583-9.487v-14.373C181.652,264.771,178.705,260.523,175.069,260.523z"/>
		</g>
	</g>
</g>
<g id="Rounded_Rectangle_1_copy_71_1_" enable-background="new    ">
	<g id="Rounded_Rectangle_1_copy_71">
		<g>
			<path fill="#DEA34B" d="M160.719,260.523c-3.636,0-6.583,4.247-6.583,9.487v14.373c0,5.24,2.947,9.487,6.583,9.487
				c3.635,0,6.582-4.247,6.582-9.487v-14.373C167.301,264.771,164.354,260.523,160.719,260.523z"/>
		</g>
	</g>
</g>
<g id="Rounded_Rectangle_1_copy_70_1_" enable-background="new    ">
	<g id="Rounded_Rectangle_1_copy_70">
		<g>
			<path fill="#DEA34B" d="M145.968,260.523c-3.635,0-6.582,4.247-6.582,9.487v14.373c0,5.24,2.947,9.487,6.582,9.487
				c3.636,0,6.583-4.247,6.583-9.487v-14.373C152.551,264.771,149.604,260.523,145.968,260.523z"/>
		</g>
	</g>
</g>
<g id="Ellipse_1_copy_2_3_" enable-background="new    ">
</g>
<g id="Ellipse_1_copy_2_2_" enable-background="new    ">
</g>
<g id="Ellipse_1_copy_1_" enable-background="new    ">
</g>
<g id="Group_3_1_">
</g>
<g id="Group_2_1_">
</g>
<g id="Group_1_1_">
</g>
<g id="Polygon_2_copy_13_1_" enable-background="new    ">
</g>
<g id="Ellipse_4_copy_2_1_" enable-background="new    ">
</g>
<g id="Polygon_2_copy_12_1_" enable-background="new    ">
</g>
</svg>
