<?xml version="1.0" encoding="utf-8"?>
<!-- Generator: Adobe Illustrator 16.0.0, SVG Export Plug-In . SVG Version: 6.00 Build 0)  -->
<!DOCTYPE svg PUBLIC "-//W3C//DTD SVG 1.1//EN" "http://www.w3.org/Graphics/SVG/1.1/DTD/svg11.dtd">
<svg version="1.1" xmlns="http://www.w3.org/2000/svg" xmlns:xlink="http://www.w3.org/1999/xlink" x="0px" y="0px"
	 width="358.604px" height="437.474px" viewBox="0 0 358.604 437.474" enable-background="new 0 0 358.604 437.474"
	 xml:space="preserve">
<g id="wing2_1_" enable-background="new    ">
</g>
<g id="wing1_1_" enable-background="new    ">
</g>
<g id="Rectangle_2_copy_5_1_" enable-background="new    ">
	<g id="Rectangle_2_copy_5">
		<g>
			<path fill="#A0A1B2" d="M326.644,177.663c0.324-26.692,1.29-106.845,1.29-115.349c0-10.221-8.283-17.439-18.489-17.109
				c-9.887,0.319-24.774,15.14-33.588,35.616H80.769c-8.881-19.748-23.314-33.907-32.974-34.22
				c-10.206-0.33-18.49,6.889-18.49,17.109c0,9.325,1.162,104.794,1.365,121.466c-0.894,6.209-1.365,12.692-1.365,19.463
				c0,81.682,67.163,198.127,150.013,198.127S329.329,286.321,329.329,204.64C329.329,195.085,328.399,186.099,326.644,177.663z"/>
		</g>
	</g>
</g>
<g id="Ellipse_6_copy_11_1_" enable-background="new    ">
	<g id="Ellipse_6_copy_11">
		<g>
			<path fill="#858697" d="M46.051,69.02v34.777c8.979-0.714,16.048-8.218,16.048-17.389S55.03,69.733,46.051,69.02z"/>
		</g>
	</g>
</g>
<g id="Ellipse_6_copy_10_1_" enable-background="new    ">
	<g id="Ellipse_6_copy_10">
		<g>
			<path fill="#858697" d="M295.141,86.408c0,9.171,7.068,16.675,16.048,17.389V69.02C302.209,69.733,295.141,77.237,295.141,86.408
				z"/>
		</g>
	</g>
</g>
<g id="Ellipse_4_copy_59_1_" enable-background="new    ">
	<g id="Ellipse_4_copy_59">
		<g>
			<path fill="#FF92B6" d="M250.131,272.921c-21.124,8.427-45.373,13.222-71.162,13.222c-24.07,0-46.798-4.179-66.896-11.586
				c-3.904,9.113-6.072,19.147-6.072,29.69c0,41.682,33.789,75.473,75.472,75.473c41.682,0,75.472-33.791,75.472-75.473
				C256.943,293.067,254.493,282.466,250.131,272.921z"/>
		</g>
	</g>
</g>
<g id="Ellipse_4_copy_54_1_" enable-background="new    ">
	<g id="Ellipse_4_copy_54">
		<g>
			<path fill-rule="evenodd" clip-rule="evenodd" fill="#FFF22A" d="M180.748,355.92c-5.034,0-9.115,4.077-9.115,9.106
				s4.081,9.106,9.115,9.106s9.115-4.077,9.115-9.106S185.782,355.92,180.748,355.92z M180.748,295.627
				c-5.034,0-9.115,4.077-9.115,9.106c0,5.028,4.081,9.105,9.115,9.105s9.115-4.077,9.115-9.105
				C189.863,299.704,185.782,295.627,180.748,295.627z M180.748,325.146c-5.034,0-9.115,4.077-9.115,9.105
				c0,5.029,4.081,9.106,9.115,9.106s9.115-4.077,9.115-9.106C189.863,329.223,185.782,325.146,180.748,325.146z M129.824,295.627
				c-5.034,0-9.115,4.077-9.115,9.106c0,5.028,4.081,9.105,9.115,9.105c5.035,0,9.116-4.077,9.116-9.105
				C138.94,299.704,134.859,295.627,129.824,295.627z M129.824,325.146c-5.034,0-9.115,4.077-9.115,9.105
				c0,5.029,4.081,9.106,9.115,9.106c5.035,0,9.116-4.077,9.116-9.106C138.94,329.223,134.859,325.146,129.824,325.146z
				 M232.3,313.839c5.034,0,9.116-4.077,9.116-9.105c0-5.029-4.082-9.106-9.116-9.106s-9.115,4.077-9.115,9.106
				C223.185,309.762,227.266,313.839,232.3,313.839z M232.3,325.146c-5.034,0-9.115,4.077-9.115,9.105
				c0,5.029,4.081,9.106,9.115,9.106s9.116-4.077,9.116-9.106C241.416,329.223,237.334,325.146,232.3,325.146z M155.601,340.847
				c-5.034,0-9.115,4.077-9.115,9.106s4.081,9.106,9.115,9.106s9.115-4.077,9.115-9.106S160.635,340.847,155.601,340.847z
				 M155.601,280.554c-5.034,0-9.115,4.077-9.115,9.105c0,5.029,4.081,9.106,9.115,9.106s9.115-4.077,9.115-9.106
				C164.716,284.631,160.635,280.554,155.601,280.554z M155.601,310.072c-5.034,0-9.115,4.077-9.115,9.105
				c0,5.03,4.081,9.106,9.115,9.106s9.115-4.076,9.115-9.106C164.716,314.149,160.635,310.072,155.601,310.072z M208.41,340.847
				c-5.034,0-9.115,4.077-9.115,9.106s4.081,9.106,9.115,9.106s9.115-4.077,9.115-9.106S213.444,340.847,208.41,340.847z
				 M208.41,280.554c-5.034,0-9.115,4.077-9.115,9.105c0,5.029,4.081,9.106,9.115,9.106s9.115-4.077,9.115-9.106
				C217.525,284.631,213.444,280.554,208.41,280.554z M208.41,310.072c-5.034,0-9.115,4.077-9.115,9.105
				c0,5.03,4.081,9.106,9.115,9.106s9.115-4.076,9.115-9.106C217.525,314.149,213.444,310.072,208.41,310.072z"/>
		</g>
	</g>
</g>
<g id="Rectangle_1_copy_8_1_" enable-background="new    ">
	<g id="Rectangle_1_copy_8">
		<g>
			<path fill="#FF709F" d="M41.831,272.172c2.204,6.324,4.668,12.627,7.392,18.855h260.189c2.723-6.229,5.188-12.531,7.392-18.855
				H41.831z"/>
		</g>
	</g>
</g>
<g id="Ellipse_1_copy_2_3_" enable-background="new    ">
	<g id="Ellipse_1_copy_2">
		<g>
			<ellipse fill="#B7BAC8" cx="235.345" cy="172.301" rx="73.434" ry="73.811"/>
		</g>
	</g>
</g>
<g id="Ellipse_1_copy_2_2_" enable-background="new    ">
	<g id="Ellipse_1_copy_2_1_">
		<g>
			<ellipse fill="#B7BAC8" cx="123.984" cy="172.301" rx="73.434" ry="73.811"/>
		</g>
	</g>
</g>
<g id="Rounded_Rectangle_1_copy_4_1_" enable-background="new    ">
	<g id="Rounded_Rectangle_1_copy_4">
		<g>
			<path fill="#858697" d="M124.919,115.534c-19.114,0-36.093,9.191-46.811,23.418l-8.005-4.811
				c-1.747-1.049-3.916-0.542-4.846,1.133c-0.93,1.676-0.267,3.885,1.48,4.935l13.557,8.146c0.561,0.337,1.165,0.512,1.758,0.54
				c17.295,13.483,42.181,31.938,42.181,31.938s31.992-23.985,49.988-38.309C163.765,126.281,145.59,115.534,124.919,115.534z
				 M294.527,135.274c-0.929-1.675-3.099-2.182-4.846-1.133l-8.005,4.811c-10.718-14.227-27.696-23.418-46.811-23.418
				c-20.671,0-38.846,10.747-49.303,26.989c17.996,14.323,49.988,38.309,49.988,38.309s24.886-18.454,42.181-31.938
				c0.593-0.028,1.197-0.203,1.759-0.54l13.556-8.146C294.794,139.159,295.457,136.95,294.527,135.274z"/>
		</g>
	</g>
</g>
<g id="Ellipse_1_copy_1_" enable-background="new    ">
	<g id="Ellipse_1_copy">
		<g>
			<path fill-rule="evenodd" clip-rule="evenodd" fill="#FFFFFF" d="M235.748,122.013c-27.854,0-50.435,22.696-50.435,50.694
				s22.58,50.694,50.435,50.694s50.435-22.696,50.435-50.694S263.603,122.013,235.748,122.013z M124.388,122.013
				c-27.854,0-50.435,22.696-50.435,50.694s22.58,50.694,50.435,50.694s50.436-22.696,50.436-50.694
				S152.242,122.013,124.388,122.013z"/>
		</g>
	</g>
</g>
<g id="Group_1_1_">
</g>
<g id="Group_2_1_">
</g>
<g id="Rounded_Rectangle_1_copy_82_1_" enable-background="new    ">
</g>
<g id="Group_3_1_">
	<g id="Polygon_1_copy_33">
		<g>
			<polygon fill="#4E3906" points="182.147,212.106 156.21,265.268 197.605,247.552 			"/>
		</g>
	</g>
	<g id="Polygon_1_copy_29">
		<g>
			<path fill="#875812" d="M178.461,209.718c-21.548-4.721-34.998,27.357-34.998,27.357l54.618,10.272
				C198.081,247.348,199.896,214.413,178.461,209.718z"/>
		</g>
	</g>
</g>
<g id="flower1_1_" enable-background="new    ">
	<g id="flower1">
		<g>
			<path fill="#FF6C9D" d="M154.394,38.371c0,0,2.69-36.294-23.227-38.271C98.396-2.398,95.643,42.472,95.643,42.472
				s-17.763-8.201-24.594,2.733c7.778,11.175,27.326,36.903,27.326,36.903h60.118c0,0,18.444-17.769,31.425-34.17
				C185.819,24.703,154.394,38.371,154.394,38.371z"/>
		</g>
	</g>
</g>
<g id="Shape_2_1_" enable-background="new    ">
	<g id="Shape_2">
		<g>
			<path fill="#FF95B8" d="M188.371,42.952c-16.182-0.398-33.049,9.163-38.076,13.187c-4.099-6.15-10.955-26.239-27.326-24.602
				c-13.663,1.366-20.495,18.451-17.763,35.536c-6.151-7.795-20.668-18.048-31.294-25.002c-1.076,0.806-2.049,1.83-2.863,3.134
				c7.778,11.175,27.326,36.903,27.326,36.903h60.118c0,0,18.444-17.769,31.425-34.17C189.581,46.029,189.044,44.392,188.371,42.952
				z"/>
		</g>
	</g>
</g>
</svg>
