<?xml version="1.0" encoding="utf-8"?>
<!-- Generator: Adobe Illustrator 16.0.0, SVG Export Plug-In . SVG Version: 6.00 Build 0)  -->
<!DOCTYPE svg PUBLIC "-//W3C//DTD SVG 1.1//EN" "http://www.w3.org/Graphics/SVG/1.1/DTD/svg11.dtd">
<svg version="1.1" xmlns="http://www.w3.org/2000/svg" xmlns:xlink="http://www.w3.org/1999/xlink" x="0px" y="0px"
	 width="94px" height="111px" viewBox="0 0 250.016 296.646" enable-background="new 0 0 250.016 296.646"
	 xml:space="preserve">
<g id="wing2_1_" enable-background="new    ">
</g>
<g id="wing1_1_" enable-background="new    ">
</g>
<g id="Ellipse_5_copy_7_1_" enable-background="new    ">
	<g id="Ellipse_5_copy_7">
		<g>
			<path fill="#A0A1B2" d="M33.449,26.104c-7.143-0.232-12.94,4.837-12.94,12.015s0.977,87.049,0.977,87.049
				s40.818-45.303,40.53-52.475C61.039,48.352,43.526,26.431,33.449,26.104z"/>
		</g>
	</g>
</g>
<g id="Ellipse_6_copy_7_1_" enable-background="new    ">
	<g id="Ellipse_6_copy_7">
		<g>
			<path fill="#858697" d="M32.229,41.847v24.422c6.284-0.501,11.231-5.771,11.231-12.211S38.513,42.348,32.229,41.847z"/>
		</g>
	</g>
</g>
<g id="Ellipse_5_copy_6_1_" enable-background="new    ">
	<g id="Ellipse_5_copy_6">
		<g>
			<path fill="#A0A1B2" d="M216.566,25.123C206.49,25.45,188.977,47.37,188,71.713c-0.288,7.172,40.53,52.475,40.53,52.475
				s0.977-79.872,0.977-87.049C229.507,29.961,223.709,24.892,216.566,25.123z"/>
		</g>
	</g>
</g>
<g id="Ellipse_6_copy_6_1_" enable-background="new    ">
	<g id="Ellipse_6_copy_6">
		<g>
			<path fill="#858697" d="M206.556,54.058c0,6.44,4.947,11.71,11.231,12.211V41.847C211.503,42.348,206.556,47.617,206.556,54.058z
				"/>
		</g>
	</g>
</g>
<g id="Rectangle_2_copy_3_1_" enable-background="new    ">
	<g id="Rectangle_2_copy_3">
		<g>
			<path fill-rule="evenodd" clip-rule="evenodd" fill="#A0A1B2" d="M203.138,75.302V50.134H43.948v28.682
				c-14.653,14.061-23.439,33.478-23.439,58.27c0,57.359,47.005,139.132,104.987,139.132s104.987-81.772,104.987-139.132
				C230.483,110.16,220.125,89.571,203.138,75.302z"/>
		</g>
	</g>
</g>
<g id="Ellipse_4_copy_61_1_" enable-background="new    ">
	<g id="Ellipse_4_copy_61">
		<g>
			<path fill="#858697" d="M97.85,201.137c-1.362,4.847-5.778,8.402-11.027,8.402c-5.25,0-9.665-3.556-11.027-8.402
				c-0.281,1.001-0.442,2.055-0.442,3.146c0,6.379,5.135,11.55,11.47,11.55c6.334,0,11.469-5.171,11.469-11.55
				C98.291,203.191,98.131,202.138,97.85,201.137z M173.79,201.137c-1.361,4.847-5.777,8.402-11.027,8.402
				c-5.249,0-9.665-3.556-11.027-8.402c-0.281,1.001-0.441,2.055-0.441,3.146c0,6.379,5.135,11.55,11.469,11.55
				c6.335,0,11.47-5.171,11.47-11.55C174.232,203.191,174.072,202.138,173.79,201.137z M108.77,243.096
				c-5.073,0-9.349-3.393-10.707-8.034c-0.293,0.999-0.456,2.053-0.456,3.146c0,6.176,4.998,11.182,11.163,11.182
				c6.166,0,11.164-5.006,11.164-11.182c0-1.094-0.164-2.147-0.456-3.146C118.119,239.703,113.844,243.096,108.77,243.096z
				 M144.958,243.096c-5.073,0-9.35-3.393-10.707-8.034c-0.293,0.999-0.457,2.053-0.457,3.146c0,6.176,4.999,11.182,11.164,11.182
				s11.164-5.006,11.164-11.182c0-1.094-0.164-2.147-0.456-3.146C154.308,239.703,150.031,243.096,144.958,243.096z M135.79,201.137
				c-1.361,4.847-5.777,8.402-11.027,8.402c-5.249,0-9.665-3.556-11.027-8.402c-0.281,1.001-0.441,2.055-0.441,3.146
				c0,6.379,5.135,11.55,11.469,11.55c6.335,0,11.47-5.171,11.47-11.55C136.232,203.191,136.072,202.138,135.79,201.137z"/>
		</g>
	</g>
</g>
<g id="Rounded_Rectangle_1_copy_75_1_" enable-background="new    ">
</g>
<g id="Rounded_Rectangle_1_copy_74_1_" enable-background="new    ">
</g>
<g id="Rounded_Rectangle_1_copy_73_1_" enable-background="new    ">
</g>
<g id="Rounded_Rectangle_1_copy_72_1_" enable-background="new    ">
</g>
<g id="Rounded_Rectangle_1_copy_71_1_" enable-background="new    ">
</g>
<g id="Rounded_Rectangle_1_copy_70_1_" enable-background="new    ">
</g>
<g id="Ellipse_1_copy_2_3_" enable-background="new    ">
	<g id="Ellipse_1_copy_2">
		<g>
			<ellipse fill="#B7BAC8" cx="87.171" cy="114.815" rx="51.675" ry="51.936"/>
		</g>
	</g>
</g>
<g id="Ellipse_1_copy_2_2_" enable-background="new    ">
	<g id="Ellipse_1_copy_2_1_">
		<g>
			<ellipse fill="#B7BAC8" cx="165.534" cy="114.815" rx="51.675" ry="51.936"/>
		</g>
	</g>
</g>
<g id="Ellipse_1_copy_1_" enable-background="new    ">
	<g id="Ellipse_1_copy">
		<g>
			<path fill-rule="evenodd" clip-rule="evenodd" fill="#FFFFFF" d="M87.83,78.681c-19.682,0-35.637,16.169-35.637,36.113
				c0,19.945,15.955,36.114,35.637,36.114s35.636-16.169,35.636-36.114C123.466,94.85,107.512,78.681,87.83,78.681z M165.151,78.681
				c-19.681,0-35.636,16.169-35.636,36.113c0,19.945,15.955,36.114,35.636,36.114c19.682,0,35.637-16.169,35.637-36.114
				C200.788,94.85,184.833,78.681,165.151,78.681z"/>
		</g>
	</g>
</g>
<g id="Group_3_1_">
</g>
<g id="Group_2_1_">
</g>
<g id="Group_1_1_">
	<g id="Polygon_1_copy_28">
		<g>
			<polygon fill="#4E3906" points="129.701,138.943 109.6,180.435 141.681,166.607 			"/>
		</g>
	</g>
	<g id="Polygon_1_copy_27">
		<g>
			<path fill="#875812" d="M126.844,137.079c-16.699-3.685-27.123,21.352-27.123,21.352l42.329,8.018
				C142.05,166.448,143.456,140.743,126.844,137.079z"/>
		</g>
	</g>
</g>
<g id="Polygon_2_copy_13_1_" enable-background="new    ">
</g>
<g id="Ellipse_4_copy_2_1_" enable-background="new    ">
</g>
<g id="Polygon_2_copy_12_1_" enable-background="new    ">
</g>
</svg>
