<?xml version="1.0" encoding="utf-8"?>
<!-- Generator: Adobe Illustrator 16.0.0, SVG Export Plug-In . SVG Version: 6.00 Build 0)  -->
<!DOCTYPE svg PUBLIC "-//W3C//DTD SVG 1.1//EN" "http://www.w3.org/Graphics/SVG/1.1/DTD/svg11.dtd">
<svg version="1.1" xmlns="http://www.w3.org/2000/svg" xmlns:xlink="http://www.w3.org/1999/xlink" x="0px" y="0px"
	 width="250.016px" height="268.272px" viewBox="0 0 250.016 268.272" enable-background="new 0 0 250.016 268.272"
	 xml:space="preserve">
<g id="w2_1_" enable-background="new    ">
</g>
<g id="w1_1_" enable-background="new    ">
</g>
<g id="Ellipse_5_copy_9_1_" enable-background="new    ">
</g>
<g id="Ellipse_6_copy_9_1_" enable-background="new    ">
</g>
<g id="Ellipse_5_copy_8_1_" enable-background="new    ">
</g>
<g id="Ellipse_6_copy_8_1_" enable-background="new    ">
</g>
<g id="Rectangle_2_copy_4_1_" enable-background="new    ">
</g>
<g id="Ellipse_3_copy_27_1_" enable-background="new    ">
</g>
<g id="Ellipse_4_copy_60_1_" enable-background="new    ">
</g>
<g id="Polygon_2_copy_14_1_" enable-background="new    ">
</g>
<g id="Rounded_Rectangle_1_copy_81_1_" enable-background="new    ">
	<g id="Rounded_Rectangle_1_copy_81">
		<g>
			<path fill="#DEA34B" d="M105.024,234.863c-3.636,0-6.583,4.255-6.583,9.504v14.4c0,5.249,2.947,9.505,6.583,9.505
				s6.583-4.256,6.583-9.505v-14.4C111.607,239.118,108.66,234.863,105.024,234.863z"/>
		</g>
	</g>
</g>
<g id="Rounded_Rectangle_1_copy_80_1_" enable-background="new    ">
	<g id="Rounded_Rectangle_1_copy_80">
		<g>
			<path fill="#DEA34B" d="M90.673,234.863c-3.635,0-6.582,4.255-6.582,9.504v14.4c0,5.249,2.947,9.505,6.582,9.505
				c3.636,0,6.583-4.256,6.583-9.505v-14.4C97.256,239.118,94.309,234.863,90.673,234.863z"/>
		</g>
	</g>
</g>
<g id="Rounded_Rectangle_1_copy_79_1_" enable-background="new    ">
	<g id="Rounded_Rectangle_1_copy_79">
		<g>
			<path fill="#DEA34B" d="M75.923,234.863c-3.635,0-6.582,4.255-6.582,9.504v14.4c0,5.249,2.947,9.505,6.582,9.505
				c3.636,0,6.583-4.256,6.583-9.505v-14.4C82.506,239.118,79.559,234.863,75.923,234.863z"/>
		</g>
	</g>
</g>
<g id="Rounded_Rectangle_1_copy_78_1_" enable-background="new    ">
	<g id="Rounded_Rectangle_1_copy_78">
		<g>
			<path fill="#DEA34B" d="M175.069,234.863c-3.635,0-6.582,4.255-6.582,9.504v14.4c0,5.249,2.947,9.505,6.582,9.505
				c3.636,0,6.583-4.256,6.583-9.505v-14.4C181.652,239.118,178.705,234.863,175.069,234.863z"/>
		</g>
	</g>
</g>
<g id="Rounded_Rectangle_1_copy_77_1_" enable-background="new    ">
	<g id="Rounded_Rectangle_1_copy_77">
		<g>
			<path fill="#DEA34B" d="M160.719,234.863c-3.636,0-6.583,4.255-6.583,9.504v14.4c0,5.249,2.947,9.505,6.583,9.505
				s6.582-4.256,6.582-9.505v-14.4C167.301,239.118,164.354,234.863,160.719,234.863z"/>
		</g>
	</g>
</g>
<g id="Rounded_Rectangle_1_copy_76_1_" enable-background="new    ">
	<g id="Rounded_Rectangle_1_copy_76">
		<g>
			<path fill="#DEA34B" d="M145.969,234.863c-3.636,0-6.583,4.255-6.583,9.504v14.4c0,5.249,2.947,9.505,6.583,9.505
				c3.635,0,6.582-4.256,6.582-9.505v-14.4C152.551,239.118,149.604,234.863,145.969,234.863z"/>
		</g>
	</g>
</g>
<g id="Ellipse_1_copy_2_3_" enable-background="new    ">
</g>
<g id="Ellipse_1_copy_2_2_" enable-background="new    ">
</g>
<g id="Ellipse_1_copy_3_" enable-background="new    ">
</g>
<g id="Ellipse_1_copy_2_" enable-background="new    ">
</g>
<g id="Group_1_1_">
</g>
<g id="Group_2_1_">
</g>
<g id="Group_3_1_">
</g>
</svg>
