<?xml version="1.0" encoding="utf-8"?>
<!-- Generator: Adobe Illustrator 16.0.0, SVG Export Plug-In . SVG Version: 6.00 Build 0)  -->
<!DOCTYPE svg PUBLIC "-//W3C//DTD SVG 1.1//EN" "http://www.w3.org/Graphics/SVG/1.1/DTD/svg11.dtd">
<svg version="1.1" xmlns="http://www.w3.org/2000/svg" xmlns:xlink="http://www.w3.org/1999/xlink" x="0px" y="0px"
	 width="358.604px" height="437.474px" viewBox="0 0 358.604 437.474" enable-background="new 0 0 358.604 437.474"
	 xml:space="preserve">
<g id="wing2_1_" enable-background="new    ">
</g>
<g id="wing1_1_" enable-background="new    ">
</g>
<g id="Rectangle_2_copy_5_1_" enable-background="new    ">
</g>
<g id="Ellipse_6_copy_11_1_" enable-background="new    ">
</g>
<g id="Ellipse_6_copy_10_1_" enable-background="new    ">
</g>
<g id="Ellipse_4_copy_59_1_" enable-background="new    ">
</g>
<g id="Ellipse_4_copy_54_1_" enable-background="new    ">
</g>
<g id="Rectangle_1_copy_8_1_" enable-background="new    ">
</g>
<g id="Ellipse_1_copy_2_3_" enable-background="new    ">
</g>
<g id="Ellipse_1_copy_2_2_" enable-background="new    ">
</g>
<g id="Rounded_Rectangle_1_copy_4_1_" enable-background="new    ">
</g>
<g id="Ellipse_1_copy_1_" enable-background="new    ">
</g>
<g id="Group_1_1_">
	<g id="Ellipse_1">
		<g>
			<ellipse cx="235.372" cy="172.112" rx="29.749" ry="30.014"/>
		</g>
	</g>
	<g id="Ellipse_2">
		<g>
			<path fill="#2F91BA" d="M236.985,196.426c5.729-0.506,11.261-3.254,15.189-8.101c3.363-4.15,4.999-9.154,4.995-14.127
				C257.165,167.742,231.441,196.915,236.985,196.426z"/>
		</g>
	</g>
	<g id="Ellipse_1_copy_3">
		<g>
			<ellipse fill="#FFFFFF" cx="220.096" cy="153.252" rx="12.061" ry="12.168"/>
		</g>
	</g>
</g>
<g id="Group_2_1_">
	<g id="Ellipse_1_1_">
		<g>
			<ellipse cx="124.417" cy="172.112" rx="29.749" ry="30.014"/>
		</g>
	</g>
	<g id="Ellipse_2_copy">
		<g>
			<path fill="#2F91BA" d="M125.129,196.426c5.814-0.495,11.427-3.185,15.414-7.93c3.413-4.062,5.073-8.962,5.069-13.83
				C145.606,168.346,119.502,196.905,125.129,196.426z"/>
		</g>
	</g>
	<g id="Ellipse_1_copy_3_2_">
		<g>
			<ellipse fill="#FFFFFF" cx="109.141" cy="153.252" rx="12.061" ry="12.168"/>
		</g>
	</g>
</g>
<g id="Rounded_Rectangle_1_copy_82_1_" enable-background="new    ">
</g>
<g id="Group_3_1_">
</g>
<g id="flower1_1_" enable-background="new    ">
</g>
<g id="Shape_2_1_" enable-background="new    ">
</g>
</svg>
