<?xml version="1.0" encoding="utf-8"?>
<!-- Generator: Adobe Illustrator 16.0.0, SVG Export Plug-In . SVG Version: 6.00 Build 0)  -->
<!DOCTYPE svg PUBLIC "-//W3C//DTD SVG 1.1//EN" "http://www.w3.org/Graphics/SVG/1.1/DTD/svg11.dtd">
<svg version="1.1" xmlns="http://www.w3.org/2000/svg" xmlns:xlink="http://www.w3.org/1999/xlink" x="0px" y="0px"
	 width="250.016px" height="268.272px" viewBox="0 0 250.016 268.272" enable-background="new 0 0 250.016 268.272"
	 xml:space="preserve">
<g id="w2_1_" enable-background="new    ">
</g>
<g id="w1_1_" enable-background="new    ">
</g>
<g id="Ellipse_5_copy_9_1_" enable-background="new    ">
</g>
<g id="Ellipse_6_copy_9_1_" enable-background="new    ">
</g>
<g id="Ellipse_5_copy_8_1_" enable-background="new    ">
</g>
<g id="Ellipse_6_copy_8_1_" enable-background="new    ">
</g>
<g id="Rectangle_2_copy_4_1_" enable-background="new    ">
</g>
<g id="Ellipse_3_copy_27_1_" enable-background="new    ">
</g>
<g id="Ellipse_4_copy_60_1_" enable-background="new    ">
</g>
<g id="Polygon_2_copy_14_1_" enable-background="new    ">
</g>
<g id="Rounded_Rectangle_1_copy_81_1_" enable-background="new    ">
</g>
<g id="Rounded_Rectangle_1_copy_80_1_" enable-background="new    ">
</g>
<g id="Rounded_Rectangle_1_copy_79_1_" enable-background="new    ">
</g>
<g id="Rounded_Rectangle_1_copy_78_1_" enable-background="new    ">
</g>
<g id="Rounded_Rectangle_1_copy_77_1_" enable-background="new    ">
</g>
<g id="Rounded_Rectangle_1_copy_76_1_" enable-background="new    ">
</g>
<g id="Ellipse_1_copy_2_3_" enable-background="new    ">
</g>
<g id="Ellipse_1_copy_2_2_" enable-background="new    ">
</g>
<g id="Ellipse_1_copy_3_" enable-background="new    ">
</g>
<g id="Ellipse_1_copy_2_" enable-background="new    ">
</g>
<g id="Group_1_1_">
	<g id="Ellipse_1">
		<g>
			<path fill-rule="evenodd" clip-rule="evenodd" d="M164.854,68.032c-1.615,0-3.182,0.202-4.692,0.552
				c1.492,1.565,2.414,3.696,2.414,6.049c0,4.801-3.824,8.693-8.541,8.693c-3.213,0-6.008-1.808-7.467-4.476
				c-1.762,3.134-2.783,6.754-2.783,10.623c0,11.843,9.433,21.443,21.069,21.443c11.636,0,21.069-9.601,21.069-21.443
				C185.923,77.633,176.489,68.032,164.854,68.032z"/>
		</g>
	</g>
	<g id="Ellipse_2">
		<g>
			<path fill="#2F91BA" d="M165.996,105.479c4.058-0.361,7.975-2.324,10.758-5.787c2.382-2.965,3.54-6.54,3.537-10.093
				C180.288,84.986,162.069,105.828,165.996,105.479z"/>
		</g>
	</g>
</g>
<g id="Group_2_1_">
	<g id="Ellipse_1_2_">
		<g>
			<path fill-rule="evenodd" clip-rule="evenodd" d="M87.637,68.032c-2.014,0-3.956,0.305-5.8,0.842
				c1.337,1.535,2.156,3.547,2.156,5.759c0,4.801-3.824,8.693-8.541,8.693c-2.719,0-5.137-1.298-6.701-3.312
				c-1.384,2.856-2.183,6.06-2.183,9.46c0,11.843,9.433,21.443,21.069,21.443c11.636,0,21.069-9.601,21.069-21.443
				C108.706,77.633,99.272,68.032,87.637,68.032z"/>
		</g>
	</g>
	<g id="Ellipse_2_copy">
		<g>
			<path fill="#2F91BA" d="M86.774,105.479c4.118-0.354,8.093-2.275,10.917-5.665c2.417-2.902,3.593-6.403,3.59-9.881
				C101.277,85.417,82.79,105.821,86.774,105.479z"/>
		</g>
	</g>
</g>
<g id="Group_3_1_">
</g>
</svg>
